<?xml version="1.0" encoding="UTF-8"?>
<svg xmlns="http://www.w3.org/2000/svg" xmlns:xlink="http://www.w3.org/1999/xlink" width="261.228pt" height="200.395pt" viewBox="0 0 261.228 200.395">
<defs>
<g>
<g id="glyph-0-0">
<path d="M 11.703125 0 L 11.703125 -0.609375 L 10.34375 -0.609375 L 6.71875 -5.65625 L 9.140625 -8.890625 C 9.28125 -9.078125 9.328125 -9.109375 9.8125 -9.15625 C 10.171875 -9.1875 10.234375 -9.1875 10.65625 -9.1875 L 11.015625 -9.1875 L 11.015625 -9.8125 C 10.6875 -9.78125 9.546875 -9.78125 9.15625 -9.78125 C 8.703125 -9.78125 7.46875 -9.78125 7.109375 -9.8125 L 7.109375 -9.1875 C 7.28125 -9.1875 7.984375 -9.1875 8.40625 -9.015625 L 6.3125 -6.21875 L 4.1875 -9.1875 L 5.375 -9.1875 L 5.375 -9.8125 C 4.859375 -9.78125 3.515625 -9.78125 2.9375 -9.78125 C 2.4375 -9.78125 1.03125 -9.78125 0.640625 -9.8125 L 0.640625 -9.1875 L 2.03125 -9.1875 L 5.203125 -4.75 L 2.328125 -0.921875 C 2.203125 -0.75 2.15625 -0.703125 1.65625 -0.65625 C 1.296875 -0.625 1.234375 -0.609375 0.828125 -0.609375 L 0.4375 -0.609375 L 0.4375 0 C 0.765625 -0.03125 1.9375 -0.03125 2.328125 -0.03125 C 2.78125 -0.03125 4 -0.03125 4.359375 0 L 4.359375 -0.609375 C 4.203125 -0.609375 3.46875 -0.609375 3.0625 -0.78125 L 5.609375 -4.1875 L 8.171875 -0.609375 L 6.984375 -0.609375 L 6.984375 0 C 7.453125 -0.03125 8.875 -0.03125 9.421875 -0.03125 C 9.875 -0.03125 11.359375 -0.03125 11.703125 0 Z M 11.703125 0 "/>
</g>
<g id="glyph-0-1">
<path d="M 5.34375 3.421875 C 5.34375 3.359375 5.34375 3.328125 5.078125 3.078125 C 3.46875 1.46875 2.859375 -1.046875 2.859375 -3.5625 C 2.859375 -6.375 3.5625 -8.6875 5.15625 -10.3125 C 5.328125 -10.484375 5.34375 -10.5 5.34375 -10.546875 C 5.34375 -10.71875 5.171875 -10.71875 5.109375 -10.71875 C 4.96875 -10.71875 4.953125 -10.71875 4.578125 -10.421875 C 2.515625 -8.78125 1.546875 -6.140625 1.546875 -3.578125 C 1.546875 -0.9375 2.53125 1.609375 4.5625 3.28125 C 4.9375 3.59375 4.96875 3.59375 5.109375 3.59375 C 5.171875 3.59375 5.34375 3.59375 5.34375 3.421875 Z M 5.34375 3.421875 "/>
</g>
<g id="glyph-0-2">
<path d="M 9.421875 -6.34375 L 9 -9.734375 L 0.546875 -9.734375 L 0.546875 -9.125 L 2.0625 -9.125 L 2.0625 -0.609375 L 0.546875 -0.609375 L 0.546875 0 C 0.953125 -0.03125 2.59375 -0.03125 3.109375 -0.03125 L 5.84375 0 L 5.84375 -0.609375 L 3.953125 -0.609375 L 3.953125 -4.5625 L 4.734375 -4.5625 C 6.109375 -4.5625 6.21875 -3.9375 6.21875 -2.890625 L 6.8125 -2.890625 L 6.8125 -6.84375 L 6.21875 -6.84375 C 6.21875 -5.796875 6.109375 -5.171875 4.734375 -5.171875 L 3.953125 -5.171875 L 3.953125 -9.125 L 5.984375 -9.125 C 8.265625 -9.125 8.625 -8.078125 8.828125 -6.34375 Z M 9.421875 -6.34375 "/>
</g>
<g id="glyph-0-3">
<path d="M 7.578125 -3.125 C 7.578125 -5.0625 6.265625 -6.46875 4.015625 -6.46875 C 1.6875 -6.46875 0.4375 -4.984375 0.4375 -3.125 C 0.4375 -1.265625 1.765625 0.078125 4 0.078125 C 6.328125 0.078125 7.578125 -1.328125 7.578125 -3.125 Z M 5.859375 -3.28125 C 5.859375 -2.09375 5.859375 -0.421875 4.015625 -0.421875 C 2.15625 -0.421875 2.15625 -2.109375 2.15625 -3.28125 C 2.15625 -3.953125 2.15625 -4.65625 2.4375 -5.171875 C 2.75 -5.75 3.390625 -6 4 -6 C 4.8125 -6 5.328125 -5.625 5.578125 -5.21875 C 5.859375 -4.703125 5.859375 -3.953125 5.859375 -3.28125 Z M 5.859375 -3.28125 "/>
</g>
<g id="glyph-0-4">
<path d="M 6.109375 -5.296875 C 6.109375 -6.03125 5.359375 -6.4375 4.671875 -6.4375 C 3.546875 -6.4375 3.0625 -5.453125 2.859375 -4.84375 L 2.84375 -4.84375 L 2.84375 -6.4375 L 0.5 -6.3125 L 0.5 -5.703125 C 1.390625 -5.703125 1.484375 -5.703125 1.484375 -5.140625 L 1.484375 -0.609375 L 0.5 -0.609375 L 0.5 0 C 0.828125 -0.03125 1.90625 -0.03125 2.296875 -0.03125 C 2.71875 -0.03125 3.875 -0.03125 4.21875 0 L 4.21875 -0.609375 L 2.96875 -0.609375 L 2.96875 -3.21875 C 2.96875 -3.6875 3.078125 -5.96875 4.75 -5.96875 C 4.546875 -5.796875 4.453125 -5.5625 4.453125 -5.296875 C 4.453125 -4.71875 4.921875 -4.46875 5.28125 -4.46875 C 5.640625 -4.46875 6.109375 -4.71875 6.109375 -5.296875 Z M 6.109375 -5.296875 "/>
</g>
<g id="glyph-0-5">
<path d="M 11.265625 -5.734375 L 11.265625 -6.34375 C 10.84375 -6.3125 10.671875 -6.3125 10.15625 -6.3125 C 9.5625 -6.3125 9.375 -6.3125 8.859375 -6.34375 L 8.859375 -5.734375 C 9 -5.734375 9.6875 -5.734375 9.6875 -5.546875 C 9.6875 -5.546875 9.6875 -5.515625 9.640625 -5.375 L 8.140625 -1.65625 L 6.484375 -5.734375 L 7.3125 -5.734375 L 7.3125 -6.34375 C 6.96875 -6.3125 6.125 -6.3125 5.734375 -6.3125 L 4.265625 -6.34375 L 4.265625 -5.734375 L 5.109375 -5.734375 C 5.140625 -5.625 5.21875 -5.4375 5.28125 -5.296875 C 5.3125 -5.21875 5.46875 -4.875 5.46875 -4.796875 L 5.40625 -4.625 L 4.3125 -1.9375 L 2.78125 -5.734375 L 3.59375 -5.734375 L 3.59375 -6.34375 C 3.265625 -6.3125 2.28125 -6.3125 1.90625 -6.3125 C 1.4375 -6.3125 0.75 -6.3125 0.328125 -6.34375 L 0.328125 -5.734375 L 1.171875 -5.734375 L 3.359375 -0.28125 C 3.453125 -0.03125 3.515625 0.078125 3.828125 0.078125 C 3.984375 0.078125 4.15625 0.078125 4.28125 -0.21875 L 5.796875 -4 L 7.3125 -0.25 C 7.4375 0.078125 7.59375 0.078125 7.765625 0.078125 C 8.078125 0.078125 8.125 -0.015625 8.21875 -0.265625 L 10.296875 -5.390625 C 10.390625 -5.640625 10.4375 -5.734375 11.265625 -5.734375 Z M 11.265625 -5.734375 "/>
</g>
<g id="glyph-0-6">
<path d="M 7.734375 -0.3125 C 7.734375 -0.609375 7.609375 -0.609375 7.40625 -0.609375 C 6.5 -0.625 6.5 -0.859375 6.5 -1.1875 L 6.5 -4.28125 C 6.5 -5.59375 5.46875 -6.46875 3.453125 -6.46875 C 2.640625 -6.46875 0.953125 -6.40625 0.953125 -5.203125 C 0.953125 -4.609375 1.421875 -4.34375 1.796875 -4.34375 C 2.234375 -4.34375 2.640625 -4.640625 2.640625 -5.1875 C 2.640625 -5.46875 2.546875 -5.71875 2.296875 -5.875 C 2.78125 -6 3.109375 -6 3.390625 -6 C 4.359375 -6 4.953125 -5.46875 4.953125 -4.28125 L 4.953125 -3.71875 C 2.6875 -3.71875 0.421875 -3.09375 0.421875 -1.5 C 0.421875 -0.203125 2.078125 0.078125 3.0625 0.078125 C 4.15625 0.078125 4.859375 -0.515625 5.140625 -1.140625 C 5.140625 -0.609375 5.140625 0 6.59375 0 L 7.3125 0 C 7.625 0 7.734375 0 7.734375 -0.3125 Z M 4.953125 -1.984375 C 4.953125 -0.640625 3.75 -0.390625 3.28125 -0.390625 C 2.59375 -0.390625 2 -0.859375 2 -1.515625 C 2 -2.8125 3.546875 -3.265625 4.953125 -3.328125 Z M 4.953125 -1.984375 "/>
</g>
<g id="glyph-0-7">
<path d="M 8.421875 0 L 8.421875 -0.609375 C 7.53125 -0.609375 7.4375 -0.609375 7.4375 -1.171875 L 7.4375 -9.921875 L 4.96875 -9.8125 L 4.96875 -9.1875 C 5.84375 -9.1875 5.953125 -9.1875 5.953125 -8.640625 L 5.953125 -5.75 C 5.640625 -6.015625 5 -6.4375 4.015625 -6.4375 C 1.984375 -6.4375 0.546875 -5.171875 0.546875 -3.171875 C 0.546875 -1.125 1.953125 0.078125 3.859375 0.078125 C 4.640625 0.078125 5.3125 -0.1875 5.875 -0.65625 L 5.875 0.078125 Z M 5.875 -1.4375 C 5.28125 -0.578125 4.546875 -0.390625 4.03125 -0.390625 C 2.265625 -0.390625 2.265625 -2.203125 2.265625 -3.140625 C 2.265625 -3.8125 2.265625 -4.53125 2.578125 -5.078125 C 3.015625 -5.875 3.859375 -5.96875 4.1875 -5.96875 C 4.78125 -5.96875 5.40625 -5.703125 5.875 -5.078125 Z M 5.875 -1.4375 "/>
</g>
<g id="glyph-0-8">
<path d="M 4.6875 -3.5625 C 4.6875 -6.1875 3.703125 -8.75 1.671875 -10.40625 C 1.296875 -10.71875 1.265625 -10.71875 1.125 -10.71875 C 1.0625 -10.71875 0.890625 -10.71875 0.890625 -10.546875 C 0.890625 -10.5 0.890625 -10.46875 1.15625 -10.203125 C 2.765625 -8.609375 3.375 -6.09375 3.375 -3.578125 C 3.375 -0.75 2.671875 1.5625 1.078125 3.171875 C 0.90625 3.34375 0.890625 3.359375 0.890625 3.421875 C 0.890625 3.59375 1.0625 3.59375 1.125 3.59375 C 1.265625 3.59375 1.28125 3.59375 1.65625 3.28125 C 3.71875 1.640625 4.6875 -0.984375 4.6875 -3.5625 Z M 4.6875 -3.5625 "/>
</g>
<g id="glyph-0-9">
<path d="M 11.90625 -9.1875 L 11.90625 -9.8125 C 11.515625 -9.78125 10.71875 -9.78125 10.296875 -9.78125 C 9.890625 -9.78125 8.859375 -9.78125 8.53125 -9.8125 L 8.53125 -9.1875 C 8.890625 -9.1875 9.265625 -9.1875 9.625 -9.03125 L 9.515625 -8.859375 L 6.78125 -4.796875 L 3.796875 -9.1875 L 5 -9.1875 L 5 -9.8125 C 4.546875 -9.78125 3.09375 -9.78125 2.546875 -9.78125 C 2.0625 -9.78125 0.609375 -9.78125 0.234375 -9.8125 L 0.234375 -9.1875 L 1.59375 -9.1875 L 5.15625 -3.921875 L 5.15625 -0.609375 L 3.640625 -0.609375 L 3.640625 0 C 4.0625 -0.03125 5.5625 -0.03125 6.078125 -0.03125 C 6.625 -0.03125 8.046875 -0.03125 8.5 0 L 8.5 -0.609375 L 6.984375 -0.609375 L 6.984375 -3.921875 L 10.34375 -8.875 C 10.46875 -9.0625 10.546875 -9.1875 11.640625 -9.1875 Z M 11.90625 -9.1875 "/>
</g>
<g id="glyph-0-10">
<path d="M 11.9375 -1.3125 C 11.9375 -1.5625 11.828125 -1.59375 11.640625 -1.59375 C 11.359375 -1.59375 11.359375 -1.5 11.34375 -1.3125 C 11.265625 -0.59375 10.828125 -0.296875 10.421875 -0.296875 C 9.5 -0.296875 9.40625 -1.265625 9.296875 -2.578125 C 9.203125 -3.328125 9.109375 -4.390625 7.5625 -4.859375 C 9.5 -5.375 9.96875 -6.40625 9.96875 -7.171875 C 9.96875 -8.609375 8.46875 -9.8125 5.8125 -9.8125 L 0.546875 -9.8125 L 0.546875 -9.1875 L 2.0625 -9.1875 L 2.0625 -0.609375 L 0.546875 -0.609375 L 0.546875 0 C 0.953125 -0.03125 2.4375 -0.03125 2.953125 -0.03125 C 3.46875 -0.03125 4.96875 -0.03125 5.390625 0 L 5.390625 -0.609375 L 3.875 -0.609375 L 3.875 -4.671875 L 5.578125 -4.671875 C 6.140625 -4.671875 6.609375 -4.5 6.921875 -4.125 C 7.34375 -3.640625 7.34375 -3.328125 7.34375 -2.375 C 7.34375 -1.421875 7.34375 -0.828125 8.078125 -0.34375 C 8.828125 0.15625 10 0.171875 10.3125 0.171875 C 11.765625 0.171875 11.9375 -1.109375 11.9375 -1.3125 Z M 7.953125 -7.171875 C 7.953125 -6.390625 7.9375 -5.140625 5.546875 -5.140625 L 3.875 -5.140625 L 3.875 -9.1875 L 5.578125 -9.1875 C 7.90625 -9.1875 7.953125 -8.015625 7.953125 -7.171875 Z M 7.953125 -7.171875 "/>
</g>
<g id="glyph-0-11">
<path d="M 3.984375 0 L 3.984375 -0.609375 L 3.109375 -0.609375 L 3.109375 -6.4375 L 0.671875 -6.3125 L 0.671875 -5.703125 C 1.515625 -5.703125 1.609375 -5.703125 1.609375 -5.140625 L 1.609375 -0.609375 L 0.625 -0.609375 L 0.625 0 C 0.953125 -0.03125 1.9375 -0.03125 2.328125 -0.03125 C 2.734375 -0.03125 3.640625 -0.03125 3.984375 0 Z M 3.28125 -8.6875 C 3.28125 -9.28125 2.78125 -9.71875 2.25 -9.71875 C 1.65625 -9.71875 1.203125 -9.25 1.203125 -8.6875 C 1.203125 -8.109375 1.6875 -7.65625 2.234375 -7.65625 C 2.8125 -7.65625 3.28125 -8.140625 3.28125 -8.6875 Z M 3.28125 -8.6875 "/>
</g>
<g id="glyph-0-12">
<path d="M 7.796875 -5.71875 C 7.796875 -6.0625 7.53125 -6.515625 6.9375 -6.515625 C 6.3125 -6.515625 5.734375 -6.21875 5.4375 -5.96875 C 4.84375 -6.3125 4.28125 -6.4375 3.5625 -6.4375 C 1.59375 -6.4375 0.796875 -5.328125 0.796875 -4.328125 C 0.796875 -3.890625 0.9375 -3.296875 1.546875 -2.8125 C 1.296875 -2.546875 1.046875 -2.046875 1.046875 -1.53125 C 1.046875 -0.921875 1.375 -0.390625 1.671875 -0.15625 C 1.328125 -0.078125 0.4375 0.25 0.4375 1.078125 C 0.4375 1.921875 1.375 2.875 4 2.875 C 6.375 2.875 7.578125 2.109375 7.578125 1.03125 C 7.578125 -0.234375 6.75 -0.640625 6.390625 -0.8125 C 5.703125 -1.15625 4.796875 -1.15625 3.53125 -1.15625 C 3.171875 -1.15625 2.546875 -1.15625 2.46875 -1.171875 C 1.859375 -1.265625 1.6875 -1.8125 1.6875 -2.09375 C 1.6875 -2.203125 1.703125 -2.421875 1.859375 -2.609375 C 2.546875 -2.234375 3.34375 -2.234375 3.5625 -2.234375 C 5.53125 -2.234375 6.3125 -3.328125 6.3125 -4.328125 C 6.3125 -5.0625 5.90625 -5.578125 5.734375 -5.71875 C 6.140625 -5.953125 6.484375 -6 6.734375 -6.03125 C 6.6875 -5.96875 6.640625 -5.90625 6.640625 -5.71875 C 6.640625 -5.421875 6.84375 -5.140625 7.21875 -5.140625 C 7.59375 -5.140625 7.796875 -5.421875 7.796875 -5.71875 Z M 4.796875 -4.328125 C 4.796875 -3.671875 4.796875 -2.6875 3.5625 -2.6875 C 2.3125 -2.6875 2.3125 -3.671875 2.3125 -4.328125 C 2.3125 -4.984375 2.3125 -5.96875 3.5625 -5.96875 C 4.796875 -5.96875 4.796875 -4.984375 4.796875 -4.328125 Z M 6.40625 1.09375 C 6.40625 1.59375 5.90625 2.421875 4.015625 2.421875 C 2.125 2.421875 1.609375 1.609375 1.609375 1.078125 C 1.609375 0.15625 2.515625 0.15625 2.734375 0.15625 L 4.359375 0.15625 C 5.40625 0.15625 6.40625 0.34375 6.40625 1.09375 Z M 6.40625 1.09375 "/>
</g>
<g id="glyph-0-13">
<path d="M 8.578125 0 L 8.578125 -0.609375 L 7.59375 -0.609375 L 7.59375 -4.375 C 7.59375 -5.734375 7 -6.4375 5.4375 -6.4375 C 3.984375 -6.4375 3.28125 -5.421875 3.09375 -4.984375 L 3.078125 -4.984375 L 3.078125 -9.921875 L 0.59375 -9.8125 L 0.59375 -9.1875 C 1.484375 -9.1875 1.59375 -9.1875 1.59375 -8.640625 L 1.59375 -0.609375 L 0.59375 -0.609375 L 0.59375 0 C 0.921875 -0.03125 1.953125 -0.03125 2.359375 -0.03125 C 2.765625 -0.03125 3.796875 -0.03125 4.125 0 L 4.125 -0.609375 L 3.140625 -0.609375 L 3.140625 -3.65625 C 3.140625 -5.203125 4.28125 -5.96875 5.203125 -5.96875 C 5.734375 -5.96875 6.03125 -5.625 6.03125 -4.53125 L 6.03125 -0.609375 L 5.046875 -0.609375 L 5.046875 0 C 5.375 -0.03125 6.40625 -0.03125 6.8125 -0.03125 C 7.203125 -0.03125 8.25 -0.03125 8.578125 0 Z M 8.578125 0 "/>
</g>
<g id="glyph-0-14">
<path d="M 5.34375 -1.765625 L 5.34375 -2.53125 L 4.75 -2.53125 L 4.75 -1.78125 C 4.75 -0.84375 4.3125 -0.421875 3.875 -0.421875 C 3.015625 -0.421875 3.015625 -1.390625 3.015625 -1.71875 L 3.015625 -5.734375 L 5.078125 -5.734375 L 5.078125 -6.34375 L 3.015625 -6.34375 L 3.015625 -9.078125 L 2.421875 -9.078125 C 2.40625 -7.65625 1.71875 -6.25 0.296875 -6.203125 L 0.296875 -5.734375 L 1.453125 -5.734375 L 1.453125 -1.765625 C 1.453125 -0.25 2.625 0.078125 3.65625 0.078125 C 4.71875 0.078125 5.34375 -0.71875 5.34375 -1.765625 Z M 5.34375 -1.765625 "/>
</g>
<g id="glyph-0-15">
<path d="M 9 -3.984375 L 8.40625 -3.984375 C 8.296875 -2.3125 8.015625 -0.65625 5.171875 -0.65625 L 3.09375 -0.65625 L 8.8125 -9.15625 C 8.921875 -9.328125 8.921875 -9.390625 8.921875 -9.5 C 8.921875 -9.8125 8.8125 -9.8125 8.5 -9.8125 L 1.265625 -9.8125 L 1.109375 -6.421875 L 1.71875 -6.421875 C 1.828125 -8.453125 2.921875 -9.1875 4.78125 -9.1875 L 6.71875 -9.1875 L 1 -0.6875 C 0.890625 -0.515625 0.890625 -0.453125 0.890625 -0.328125 C 0.890625 0 0.984375 0 1.296875 0 L 8.765625 0 Z M 9 -3.984375 "/>
</g>
<g id="glyph-0-16">
<path d="M 11.421875 -4.8125 C 11.421875 -8.046875 9.25 -9.8125 6.5625 -9.8125 L 0.546875 -9.8125 L 0.546875 -9.1875 L 2.0625 -9.1875 L 2.0625 -0.609375 L 0.546875 -0.609375 L 0.546875 0 L 6.5625 0 C 9.3125 0 11.421875 -1.765625 11.421875 -4.8125 Z M 9.484375 -4.828125 C 9.484375 -3.15625 9.265625 -2.421875 8.765625 -1.75 C 8.265625 -1.09375 7.3125 -0.609375 6.015625 -0.609375 L 3.875 -0.609375 L 3.875 -9.1875 L 6.015625 -9.1875 C 7.265625 -9.1875 8.265625 -8.703125 8.796875 -7.96875 C 9.203125 -7.375 9.484375 -6.671875 9.484375 -4.828125 Z M 9.484375 -4.828125 "/>
</g>
<g id="glyph-0-17">
<path d="M 8.578125 0 L 8.578125 -0.609375 L 7.59375 -0.609375 L 7.59375 -4.375 C 7.59375 -5.734375 7 -6.4375 5.4375 -6.4375 C 4.40625 -6.4375 3.515625 -5.9375 3.03125 -4.859375 L 3.015625 -4.859375 L 3.015625 -6.4375 L 0.59375 -6.3125 L 0.59375 -5.703125 C 1.484375 -5.703125 1.59375 -5.703125 1.59375 -5.140625 L 1.59375 -0.609375 L 0.59375 -0.609375 L 0.59375 0 C 0.921875 -0.03125 1.953125 -0.03125 2.359375 -0.03125 C 2.765625 -0.03125 3.796875 -0.03125 4.125 0 L 4.125 -0.609375 L 3.140625 -0.609375 L 3.140625 -3.65625 C 3.140625 -5.203125 4.28125 -5.96875 5.203125 -5.96875 C 5.734375 -5.96875 6.03125 -5.625 6.03125 -4.53125 L 6.03125 -0.609375 L 5.046875 -0.609375 L 5.046875 0 C 5.375 -0.03125 6.40625 -0.03125 6.8125 -0.03125 C 7.203125 -0.03125 8.25 -0.03125 8.578125 0 Z M 8.578125 0 "/>
</g>
<g id="glyph-1-0">
<path d="M 8.53125 -0.9375 C 8.53125 -1.15625 8.390625 -1.15625 8.28125 -1.15625 C 8.078125 -1.15625 8.0625 -1.0625 8.0625 -0.9375 C 8.015625 -0.46875 7.71875 -0.25 7.421875 -0.25 C 6.828125 -0.25 6.734375 -0.953125 6.6875 -1.375 C 6.671875 -1.484375 6.59375 -2.171875 6.578125 -2.21875 C 6.4375 -2.90625 5.890625 -3.21875 5.46875 -3.375 C 6.625 -3.671875 7.125 -4.328125 7.125 -4.984375 C 7.125 -5.984375 6.03125 -6.8125 4.15625 -6.8125 L 0.390625 -6.8125 L 0.390625 -6.34375 L 1.453125 -6.34375 L 1.453125 -0.46875 L 0.390625 -0.46875 L 0.390625 0 C 0.75 -0.03125 1.71875 -0.03125 2.140625 -0.03125 C 2.546875 -0.03125 3.53125 -0.03125 3.890625 0 L 3.890625 -0.46875 L 2.8125 -0.46875 L 2.8125 -3.234375 L 3.96875 -3.234375 C 4.109375 -3.234375 4.546875 -3.234375 4.859375 -2.890625 C 5.171875 -2.546875 5.171875 -2.359375 5.171875 -1.625 C 5.171875 -0.96875 5.171875 -0.484375 5.875 -0.15625 C 6.3125 0.0625 6.921875 0.109375 7.328125 0.109375 C 8.390625 0.109375 8.53125 -0.78125 8.53125 -0.9375 Z M 5.609375 -4.96875 C 5.609375 -4.40625 5.609375 -3.59375 3.96875 -3.59375 L 2.8125 -3.59375 L 2.8125 -6.34375 L 3.984375 -6.34375 C 5.578125 -6.34375 5.609375 -5.578125 5.609375 -4.96875 Z M 5.609375 -4.96875 "/>
</g>
<g id="glyph-1-1">
<path d="M 5.390625 -2.171875 C 5.390625 -3.5 4.46875 -4.5 2.859375 -4.5 C 1.21875 -4.5 0.3125 -3.484375 0.3125 -2.171875 C 0.3125 -0.9375 1.1875 0.0625 2.859375 0.0625 C 4.515625 0.0625 5.390625 -0.9375 5.390625 -2.171875 Z M 4.109375 -2.28125 C 4.109375 -1.40625 4.109375 -0.34375 2.859375 -0.34375 C 1.59375 -0.34375 1.59375 -1.40625 1.59375 -2.28125 C 1.59375 -2.71875 1.59375 -3.234375 1.765625 -3.5625 C 1.953125 -3.9375 2.359375 -4.140625 2.859375 -4.140625 C 3.265625 -4.140625 3.6875 -3.984375 3.90625 -3.640625 C 4.109375 -3.296875 4.109375 -2.75 4.109375 -2.28125 Z M 4.109375 -2.28125 "/>
</g>
<g id="glyph-1-2">
<path d="M 2.90625 0 L 2.90625 -0.46875 L 2.21875 -0.46875 L 2.21875 -6.890625 L 0.46875 -6.8125 L 0.46875 -6.34375 C 1.078125 -6.34375 1.15625 -6.34375 1.15625 -5.96875 L 1.15625 -0.46875 L 0.46875 -0.46875 L 0.46875 0 L 1.6875 -0.03125 Z M 2.90625 0 "/>
</g>
<g id="glyph-1-3">
<path d="M 7.171875 -4.875 C 7.171875 -5.96875 6.1875 -6.8125 4.53125 -6.8125 L 0.390625 -6.8125 L 0.390625 -6.34375 L 1.453125 -6.34375 L 1.453125 -0.46875 L 0.390625 -0.46875 L 0.390625 0 C 0.765625 -0.03125 1.734375 -0.03125 2.171875 -0.03125 C 2.59375 -0.03125 3.5625 -0.03125 3.9375 0 L 3.9375 -0.46875 L 2.875 -0.46875 L 2.875 -3 L 4.625 -3 C 6.015625 -3 7.171875 -3.71875 7.171875 -4.875 Z M 5.640625 -4.875 C 5.640625 -4.171875 5.640625 -3.40625 4.140625 -3.40625 L 2.8125 -3.40625 L 2.8125 -6.34375 L 4.15625 -6.34375 C 5.640625 -6.34375 5.640625 -5.59375 5.640625 -4.875 Z M 5.640625 -4.875 "/>
</g>
<g id="glyph-1-4">
<path d="M 2.84375 0 L 2.84375 -0.46875 L 2.21875 -0.46875 L 2.21875 -4.46875 L 0.5 -4.390625 L 0.5 -3.921875 C 1.078125 -3.921875 1.15625 -3.921875 1.15625 -3.53125 L 1.15625 -0.46875 L 0.46875 -0.46875 L 0.46875 0 L 1.671875 -0.03125 Z M 2.359375 -6.03125 C 2.359375 -6.453125 2.015625 -6.8125 1.59375 -6.8125 C 1.15625 -6.8125 0.8125 -6.453125 0.8125 -6.03125 C 0.8125 -5.609375 1.15625 -5.25 1.59375 -5.25 C 2.015625 -5.25 2.359375 -5.609375 2.359375 -6.03125 Z M 2.359375 -6.03125 "/>
</g>
<g id="glyph-1-5">
<path d="M 3.796875 -1.234375 L 3.796875 -1.765625 L 3.328125 -1.765625 L 3.328125 -1.25 C 3.328125 -0.578125 3.015625 -0.34375 2.734375 -0.34375 C 2.15625 -0.34375 2.15625 -0.96875 2.15625 -1.203125 L 2.15625 -3.9375 L 3.609375 -3.9375 L 3.609375 -4.40625 L 2.15625 -4.40625 L 2.15625 -6.3125 L 1.6875 -6.3125 C 1.671875 -5.3125 1.1875 -4.328125 0.203125 -4.296875 L 0.203125 -3.9375 L 1.03125 -3.9375 L 1.03125 -1.21875 C 1.03125 -0.15625 1.890625 0.0625 2.59375 0.0625 C 3.34375 0.0625 3.796875 -0.5 3.796875 -1.234375 Z M 3.796875 -1.234375 "/>
</g>
<g id="glyph-1-6">
<path d="M 4.75 -1.15625 C 4.75 -1.296875 4.609375 -1.296875 4.515625 -1.296875 C 4.328125 -1.296875 4.328125 -1.28125 4.265625 -1.15625 C 4.015625 -0.53125 3.53125 -0.34375 3.03125 -0.34375 C 1.65625 -0.34375 1.65625 -1.796875 1.65625 -2.25 C 1.65625 -2.8125 1.65625 -4.109375 2.9375 -4.109375 C 3.28125 -4.109375 3.453125 -4.078125 3.578125 -4.046875 C 3.40625 -3.890625 3.375 -3.671875 3.375 -3.59375 C 3.375 -3.15625 3.734375 -2.96875 4 -2.96875 C 4.296875 -2.96875 4.625 -3.171875 4.625 -3.59375 C 4.625 -4.4375 3.46875 -4.5 2.890625 -4.5 C 1.109375 -4.5 0.375 -3.359375 0.375 -2.203125 C 0.375 -0.890625 1.3125 0.0625 2.84375 0.0625 C 4.453125 0.0625 4.75 -1.09375 4.75 -1.15625 Z M 4.75 -1.15625 "/>
</g>
<g id="glyph-1-7">
<path d="M 6.109375 0 L 6.109375 -0.46875 L 5.421875 -0.46875 L 5.421875 -3.046875 C 5.421875 -4.078125 4.890625 -4.46875 3.890625 -4.46875 C 2.9375 -4.46875 2.4375 -3.890625 2.21875 -3.515625 L 2.203125 -3.515625 L 2.203125 -6.890625 L 0.453125 -6.8125 L 0.453125 -6.34375 C 1.0625 -6.34375 1.140625 -6.34375 1.140625 -5.96875 L 1.140625 -0.46875 L 0.453125 -0.46875 L 0.453125 0 L 1.703125 -0.03125 L 2.953125 0 L 2.953125 -0.46875 L 2.265625 -0.46875 L 2.265625 -2.546875 C 2.265625 -3.625 3.125 -4.109375 3.75 -4.109375 C 4.078125 -4.109375 4.296875 -3.90625 4.296875 -3.15625 L 4.296875 -0.46875 L 3.609375 -0.46875 L 3.609375 0 L 4.859375 -0.03125 Z M 6.109375 0 "/>
</g>
<g id="glyph-1-8">
<path d="M 8.4375 -6.34375 L 8.4375 -6.8125 L 7.296875 -6.78125 C 6.921875 -6.78125 6.359375 -6.78125 6 -6.8125 L 6 -6.34375 C 6.21875 -6.34375 6.484375 -6.34375 6.75 -6.25 C 6.734375 -6.21875 6.734375 -6.1875 6.671875 -6.125 L 4.8125 -3.40625 L 2.796875 -6.34375 L 3.640625 -6.34375 L 3.640625 -6.8125 C 3.234375 -6.78125 2.28125 -6.78125 1.828125 -6.78125 C 1.4375 -6.78125 0.53125 -6.78125 0.1875 -6.8125 L 0.1875 -6.34375 L 1.15625 -6.34375 L 3.640625 -2.71875 L 3.640625 -0.46875 L 2.5625 -0.46875 L 2.5625 0 C 2.921875 -0.03125 3.890625 -0.03125 4.3125 -0.03125 C 4.734375 -0.03125 5.6875 -0.03125 6.078125 0 L 6.078125 -0.46875 L 4.984375 -0.46875 L 4.984375 -2.71875 L 7.328125 -6.15625 C 7.40625 -6.296875 7.5 -6.296875 7.71875 -6.3125 C 7.875 -6.34375 8.0625 -6.34375 8.234375 -6.34375 Z M 8.4375 -6.34375 "/>
</g>
<g id="glyph-1-9">
<path d="M 5.5 -0.234375 C 5.5 -0.46875 5.359375 -0.46875 5.234375 -0.46875 C 4.625 -0.484375 4.625 -0.609375 4.625 -0.828125 L 4.625 -2.96875 C 4.625 -3.859375 3.921875 -4.5 2.4375 -4.5 C 1.875 -4.5 0.671875 -4.46875 0.671875 -3.59375 C 0.671875 -3.15625 1.015625 -2.96875 1.28125 -2.96875 C 1.59375 -2.96875 1.90625 -3.171875 1.90625 -3.59375 C 1.90625 -3.890625 1.71875 -4.046875 1.6875 -4.078125 C 1.96875 -4.140625 2.28125 -4.140625 2.40625 -4.140625 C 3.15625 -4.140625 3.5 -3.734375 3.5 -2.96875 L 3.5 -2.640625 C 2.796875 -2.609375 0.265625 -2.515625 0.265625 -1.078125 C 0.265625 -0.125 1.5 0.0625 2.1875 0.0625 C 2.984375 0.0625 3.453125 -0.34375 3.671875 -0.765625 C 3.671875 -0.453125 3.671875 0 4.703125 0 L 5.171875 0 C 5.375 0 5.5 0 5.5 -0.234375 Z M 3.5 -1.375 C 3.5 -0.421875 2.578125 -0.296875 2.328125 -0.296875 C 1.828125 -0.296875 1.4375 -0.640625 1.4375 -1.078125 C 1.4375 -2.15625 3 -2.296875 3.5 -2.328125 Z M 3.5 -1.375 "/>
</g>
<g id="glyph-1-10">
<path d="M 8 -3.9375 L 8 -4.40625 C 7.765625 -4.390625 7.46875 -4.375 7.234375 -4.375 L 6.28125 -4.40625 L 6.28125 -3.9375 C 6.375 -3.9375 6.859375 -3.9375 6.859375 -3.828125 C 6.859375 -3.796875 6.828125 -3.734375 6.8125 -3.703125 L 5.78125 -1.15625 L 4.640625 -3.9375 L 5.203125 -3.9375 L 5.203125 -4.40625 L 4.0625 -4.375 C 3.640625 -4.375 3.234375 -4.40625 3.078125 -4.40625 L 3.078125 -3.9375 L 3.65625 -3.9375 C 3.859375 -3.453125 3.859375 -3.421875 3.859375 -3.421875 C 3.859375 -3.375 3.828125 -3.3125 3.828125 -3.296875 L 3.046875 -1.375 L 2 -3.9375 L 2.546875 -3.9375 L 2.546875 -4.40625 L 1.328125 -4.375 L 0.25 -4.40625 L 0.25 -3.9375 L 0.828125 -3.9375 L 2.359375 -0.234375 C 2.421875 -0.0625 2.46875 0.046875 2.71875 0.046875 C 2.96875 0.046875 3 -0.0625 3.078125 -0.234375 L 4.125 -2.796875 L 5.171875 -0.234375 C 5.25 -0.0625 5.28125 0.046875 5.53125 0.046875 C 5.78125 0.046875 5.828125 -0.0625 5.890625 -0.234375 L 7.328125 -3.734375 C 7.375 -3.859375 7.40625 -3.9375 8 -3.9375 Z M 8 -3.9375 "/>
</g>
</g>
<clipPath id="clip-0">
<path clip-rule="nonzero" d="M 42 142 L 114 142 L 114 199.792969 L 42 199.792969 Z M 42 142 "/>
</clipPath>
</defs>
<path fill-rule="nonzero" fill="rgb(93.136597%, 93.136597%, 93.136597%)" fill-opacity="1" stroke-width="1.19553" stroke-linecap="butt" stroke-linejoin="miter" stroke="rgb(31.373596%, 31.373596%, 31.373596%)" stroke-opacity="1" stroke-miterlimit="10" d="M 45.399784 4.004204 L -8.007062 22.701106 L -45.400865 -4.004276 L 8.00598 -22.701178 Z M 45.399784 4.004204 " transform="matrix(0.99699, 0, 0, -0.99699, 77.795461, 75.542933)"/>
<path fill-rule="nonzero" fill="rgb(94.509888%, 94.509888%, 94.509888%)" fill-opacity="1" stroke-width="0.3985" stroke-linecap="butt" stroke-linejoin="miter" stroke="rgb(31.373596%, 31.373596%, 31.373596%)" stroke-opacity="1" stroke-miterlimit="10" d="M 53.529723 9.806826 L 54.6973 9.352333 L 55.766926 8.835151 L 56.71901 8.267035 L 57.549635 7.651902 L 58.247047 6.997589 L 58.803409 6.308014 L 59.210886 5.59493 L 59.469477 4.866174 L 59.571346 4.125664 L 59.520411 3.385153 L 59.312755 2.648561 L 58.956213 1.931559 L 58.446867 1.234148 L 57.796472 0.56808 L 57.012863 -0.0627245 L 56.096041 -0.646513 L 55.065596 -1.179367 L 53.929364 -1.657368 L 52.699098 -2.072681 L 51.390472 -2.421386 L 50.015238 -2.695649 L 48.589071 -2.903306 L 47.127641 -3.032601 L 45.64662 -3.083536 L 44.1656 -3.056109 L 42.696334 -2.95424 L 41.258412 -2.77401 L 39.863589 -2.519338 L 38.527536 -2.19414 L 37.269844 -1.802336 L 36.102267 -1.343925 L 35.03656 -0.830661 L 34.080557 -0.262545 L 33.25385 0.352588 L 32.556438 1.006901 L 32.000076 1.696477 L 31.5926 2.409561 L 31.334009 3.138317 L 31.228222 3.878827 L 31.283074 4.619337 L 31.486813 5.355929 L 31.847273 6.072931 L 32.356618 6.770343 L 33.007013 7.440328 L 33.790622 8.067215 L 34.703526 8.651003 L 35.733971 9.183857 L 36.870204 9.661859 L 38.100469 10.077171 L 39.413014 10.425877 L 40.788247 10.704058 L 42.214415 10.907796 L 43.671927 11.037092 L 45.152947 11.088026 L 46.633967 11.0606 L 48.107151 10.958731 L 49.545073 10.778501 L 50.939897 10.523828 L 52.272031 10.19863 Z M 53.529723 9.806826 " transform="matrix(0.99699, 0, 0, -0.99699, 77.795461, 75.542933)"/>
<path fill-rule="nonzero" fill="rgb(94.509888%, 94.509888%, 94.509888%)" fill-opacity="1" stroke-width="0.3985" stroke-linecap="butt" stroke-linejoin="miter" stroke="rgb(31.373596%, 31.373596%, 31.373596%)" stroke-opacity="1" stroke-miterlimit="10" d="M 0.122877 28.503728 L 1.294372 28.049235 L 2.36008 27.532053 L 3.312165 26.963937 L 4.14279 26.348804 L 4.840201 25.694491 L 5.396563 25.008833 L 5.80404 24.29575 L 6.062631 23.563075 L 6.1645 22.822565 L 6.113565 22.082055 L 5.905909 21.349381 L 5.549367 20.628461 L 5.040022 19.93105 L 4.389626 19.264982 L 3.606018 18.634177 L 2.693114 18.050389 L 1.662668 17.517535 L 0.522518 17.039534 L -0.70383 16.628139 L -2.016374 16.279433 L -3.391607 16.001252 L -4.817775 15.797514 L -6.279205 15.668219 L -7.756307 15.617284 L -9.241246 15.640792 L -10.710512 15.742661 L -12.148434 15.922891 L -13.543257 16.177564 L -14.875392 16.502762 L -16.133083 16.894566 L -17.304578 17.352977 L -18.370286 17.866241 L -19.326289 18.434357 L -20.152996 19.04949 L -20.850407 19.703803 L -21.406769 20.393379 L -21.814246 21.106462 L -22.072837 21.835218 L -22.174706 22.575729 L -22.123771 23.316239 L -21.916115 24.052831 L -21.559573 24.773751 L -21.050228 25.471162 L -20.399832 26.13723 L -19.616224 26.764117 L -18.70332 27.347905 L -17.672874 27.884677 L -16.536642 28.35876 L -15.306376 28.774073 L -13.993832 29.122779 L -12.618599 29.40096 L -11.192431 29.604698 L -9.731001 29.733993 L -8.253899 29.784928 L -6.76896 29.757502 L -5.299694 29.655633 L -3.861772 29.479321 L -2.466949 29.224648 L -1.134814 28.89945 Z M 0.122877 28.503728 " transform="matrix(0.99699, 0, 0, -0.99699, 77.795461, 75.542933)"/>
<path fill-rule="nonzero" fill="rgb(94.509888%, 94.509888%, 94.509888%)" fill-opacity="1" stroke-width="0.3985" stroke-linecap="butt" stroke-linejoin="miter" stroke="rgb(31.373596%, 31.373596%, 31.373596%)" stroke-opacity="1" stroke-miterlimit="10" d="M -37.270926 1.802264 L -36.103349 1.343853 L -35.033723 0.830589 L -34.081639 0.262473 L -33.251014 -0.35266 L -32.55752 -1.006973 L -32.001158 -1.696548 L -31.589764 -2.409632 L -31.335091 -3.138388 L -31.229304 -3.878898 L -31.280238 -4.619409 L -31.487894 -5.356001 L -31.848354 -6.073003 L -32.353782 -6.770414 L -33.004177 -7.4404 L -33.791704 -8.067287 L -34.704608 -8.651075 L -35.735053 -9.183929 L -36.871286 -9.66193 L -38.101551 -10.077243 L -39.410178 -10.425949 L -40.785411 -10.70413 L -42.211578 -10.907868 L -43.673008 -11.037163 L -45.154029 -11.088098 L -46.635049 -11.060672 L -48.104315 -10.958802 L -49.546155 -10.778572 L -50.940978 -10.5239 L -52.273113 -10.198702 L -53.530805 -9.806898 L -54.698382 -9.352405 L -55.768008 -8.835223 L -56.720092 -8.267107 L -57.550717 -7.651974 L -58.244211 -6.997661 L -58.800573 -6.308085 L -59.211967 -5.595001 L -59.46664 -4.866245 L -59.572427 -4.125735 L -59.521493 -3.385225 L -59.313837 -2.648633 L -58.953377 -1.931631 L -58.447949 -1.234219 L -57.797554 -0.568152 L -57.010027 0.0626529 L -56.097123 0.646441 L -55.066678 1.179295 L -53.930445 1.657296 L -52.70018 2.072609 L -51.391553 2.421315 L -50.01632 2.695578 L -48.590153 2.903234 L -47.128723 3.03253 L -45.647702 3.083464 L -44.166682 3.056038 L -42.697416 2.954169 L -41.255576 2.773939 L -39.860753 2.519266 L -38.528618 2.194068 Z M -37.270926 1.802264 " transform="matrix(0.99699, 0, 0, -0.99699, 77.795461, 75.542933)"/>
<path fill-rule="nonzero" fill="rgb(94.509888%, 94.509888%, 94.509888%)" fill-opacity="1" stroke-width="0.3985" stroke-linecap="butt" stroke-linejoin="miter" stroke="rgb(31.373596%, 31.373596%, 31.373596%)" stroke-opacity="1" stroke-miterlimit="10" d="M 16.13592 -16.894638 L 17.303497 -17.353049 L 18.369204 -17.866312 L 19.325207 -18.434429 L 20.155832 -19.049561 L 20.849326 -19.703875 L 21.405688 -20.39345 L 21.813164 -21.106534 L 22.071755 -21.83529 L 22.177542 -22.5758 L 22.12269 -23.31631 L 21.918951 -24.052902 L 21.558491 -24.773822 L 21.053064 -25.471234 L 20.402669 -26.137301 L 19.615142 -26.764188 L 18.702238 -27.347977 L 17.671793 -27.884749 L 16.53556 -28.358832 L 15.305295 -28.774144 L 13.996668 -29.12285 L 12.621435 -29.401031 L 11.195267 -29.60477 L 9.733837 -29.734065 L 8.252817 -29.785 L 6.771797 -29.757573 L 5.30253 -29.655704 L 3.860691 -29.479392 L 2.465867 -29.224719 L 1.133733 -28.899522 L -0.123959 -28.503799 L -1.291536 -28.049306 L -2.361162 -27.532125 L -3.313246 -26.964009 L -4.143871 -26.348876 L -4.841283 -25.694563 L -5.393727 -25.008905 L -5.805122 -24.295821 L -6.063713 -23.563147 L -6.165582 -22.822637 L -6.114647 -22.082127 L -5.906991 -21.349453 L -5.550449 -20.628533 L -5.041103 -19.931121 L -4.390708 -19.265054 L -3.603182 -18.634249 L -2.690277 -18.05046 L -1.659832 -17.517607 L -0.5236 -17.039605 L 0.706666 -16.628211 L 2.015292 -16.279505 L 3.390525 -16.001324 L 4.816693 -15.797586 L 6.278123 -15.66829 L 7.759143 -15.617356 L 9.240164 -15.640864 L 10.70943 -15.742733 L 12.15127 -15.922963 L 13.542175 -16.177636 L 14.878228 -16.502833 Z M 16.13592 -16.894638 " transform="matrix(0.99699, 0, 0, -0.99699, 77.795461, 75.542933)"/>
<path fill="none" stroke-width="2.49069" stroke-linecap="butt" stroke-linejoin="miter" stroke="rgb(86.274719%, 19.607544%, 11.764526%)" stroke-opacity="1" stroke-miterlimit="10" d="M 0.00141812 -0.000035798 L 66.32997 47.365187 " transform="matrix(0.99699, 0, 0, -0.99699, 77.795461, 75.542933)"/>
<path fill-rule="nonzero" fill="rgb(86.274719%, 19.607544%, 11.764526%)" fill-opacity="1" stroke-width="2.39177" stroke-linecap="butt" stroke-linejoin="miter" stroke="rgb(86.274719%, 19.607544%, 11.764526%)" stroke-opacity="1" stroke-miterlimit="10" d="M 10.009507 -0.000707779 L 4.497886 1.686507 L 6.369269 -0.00124523 L 4.498384 -1.684084 Z M 10.009507 -0.000707779 " transform="matrix(0.811331, -0.579341, -0.579341, -0.811331, 139.241852, 31.665531)"/>
<g fill="rgb(86.274719%, 19.607544%, 11.764526%)" fill-opacity="1">
<use xlink:href="#glyph-0-0" x="152.92564" y="17.679625"/>
</g>
<g fill="rgb(86.274719%, 19.607544%, 11.764526%)" fill-opacity="1">
<use xlink:href="#glyph-0-1" x="170.446838" y="17.679625"/>
<use xlink:href="#glyph-0-2" x="176.71156" y="17.679625"/>
</g>
<g fill="rgb(86.274719%, 19.607544%, 11.764526%)" fill-opacity="1">
<use xlink:href="#glyph-0-3" x="185.479311" y="17.679625"/>
<use xlink:href="#glyph-0-4" x="193.53191" y="17.679625"/>
<use xlink:href="#glyph-0-5" x="200.111299" y="17.679625"/>
</g>
<g fill="rgb(86.274719%, 19.607544%, 11.764526%)" fill-opacity="1">
<use xlink:href="#glyph-0-6" x="211.296259" y="17.679625"/>
<use xlink:href="#glyph-0-4" x="219.120011" y="17.679625"/>
<use xlink:href="#glyph-0-7" x="225.699399" y="17.679625"/>
<use xlink:href="#glyph-0-8" x="234.638786" y="17.679625"/>
</g>
<path fill="none" stroke-width="2.49069" stroke-linecap="butt" stroke-linejoin="miter" stroke="rgb(15.684509%, 62.745667%, 15.684509%)" stroke-opacity="1" stroke-miterlimit="10" d="M 0.00141812 -0.000035798 L 96.561591 -33.804912 " transform="matrix(0.99699, 0, 0, -0.99699, 77.795461, 75.542933)"/>
<path fill-rule="nonzero" fill="rgb(15.684509%, 62.745667%, 15.684509%)" fill-opacity="1" stroke-width="2.39177" stroke-linecap="butt" stroke-linejoin="miter" stroke="rgb(15.684509%, 62.745667%, 15.684509%)" stroke-opacity="1" stroke-miterlimit="10" d="M 10.009791 -0.000599813 L 4.49983 1.68629 L 6.369055 -0.000701848 L 4.497137 -1.685584 Z M 10.009791 -0.000599813 " transform="matrix(0.940949, 0.329415, 0.329415, -0.940949, 168.63618, 107.346587)"/>
<g fill="rgb(15.684509%, 62.745667%, 15.684509%)" fill-opacity="1">
<use xlink:href="#glyph-0-9" x="184.156354" y="124.927838"/>
</g>
<g fill="rgb(15.684509%, 62.745667%, 15.684509%)" fill-opacity="1">
<use xlink:href="#glyph-0-1" x="201.677551" y="124.927838"/>
<use xlink:href="#glyph-0-10" x="207.942274" y="124.927838"/>
<use xlink:href="#glyph-0-11" x="219.942506" y="124.927838"/>
<use xlink:href="#glyph-0-12" x="224.419351" y="124.927838"/>
<use xlink:href="#glyph-0-13" x="232.471951" y="124.927838"/>
</g>
<g fill="rgb(15.684509%, 62.745667%, 15.684509%)" fill-opacity="1">
<use xlink:href="#glyph-0-14" x="240.967944" y="124.927838"/>
<use xlink:href="#glyph-0-8" x="247.232666" y="124.927838"/>
</g>
<path fill="none" stroke-width="2.49069" stroke-linecap="butt" stroke-linejoin="miter" stroke="rgb(0%, 47.059631%, 78.431702%)" stroke-opacity="1" stroke-miterlimit="10" d="M 0.00141812 -0.000035798 L 0.00141812 -102.068977 " transform="matrix(0.99699, 0, 0, -0.99699, 77.795461, 75.542933)"/>
<path fill-rule="nonzero" fill="rgb(0%, 47.059631%, 78.431702%)" fill-opacity="1" d="M 77.796875 181.53125 L 79.476562 176.035156 L 77.796875 177.902344 L 76.113281 176.035156 Z M 77.796875 181.53125 "/>
<g clip-path="url(#clip-0)">
<path fill="none" stroke-width="2.39177" stroke-linecap="butt" stroke-linejoin="miter" stroke="rgb(0%, 47.059631%, 78.431702%)" stroke-opacity="1" stroke-miterlimit="10" d="M 10.01065 0.00141812 L 4.497963 1.686177 L 6.370788 0.00141812 L 4.497963 -1.687258 Z M 10.01065 0.00141812 " transform="matrix(0, 0.99699, 0.99699, 0, 77.795461, 171.550732)"/>
</g>
<g fill="rgb(0%, 47.059631%, 78.431702%)" fill-opacity="1">
<use xlink:href="#glyph-0-15" x="79.980863" y="189.248651"/>
</g>
<g fill="rgb(0%, 47.059631%, 78.431702%)" fill-opacity="1">
<use xlink:href="#glyph-0-1" x="95.184972" y="189.248651"/>
<use xlink:href="#glyph-0-16" x="101.449694" y="189.248651"/>
<use xlink:href="#glyph-0-3" x="113.778896" y="189.248651"/>
</g>
<g fill="rgb(0%, 47.059631%, 78.431702%)" fill-opacity="1">
<use xlink:href="#glyph-0-5" x="121.388102" y="189.248651"/>
<use xlink:href="#glyph-0-17" x="133.016456" y="189.248651"/>
<use xlink:href="#glyph-0-8" x="141.955843" y="189.248651"/>
</g>
<path fill-rule="nonzero" fill="rgb(89.707947%, 39.704895%, 33.822632%)" fill-opacity="1" d="M 87.175781 58.988281 L 105.695312 65.472656 L 102.921875 57.601562 Z M 87.175781 58.988281 "/>
<path fill="none" stroke-width="1.79329" stroke-linecap="butt" stroke-linejoin="miter" stroke="rgb(60.392761%, 13.726807%, 8.236694%)" stroke-opacity="1" stroke-miterlimit="10" d="M 37.845797 47.576762 L 38.464847 48.897142 L 39.228866 50.088227 L 40.133934 51.138263 L 41.172215 52.035495 L 42.328038 52.772087 L 43.589648 53.336285 L 44.941373 53.720253 L 46.375376 53.923992 L 47.868151 53.9475 L 49.407942 53.782942 L 50.975159 53.438154 L 52.55413 52.917055 L 54.129184 52.219643 L 55.680729 51.357673 L 57.189175 50.338982 L 58.646687 49.179241 L 60.025839 47.886287 L 61.318793 46.471874 L 62.513796 44.959509 L 63.591258 43.360947 L 64.539424 41.695779 L 65.354377 39.979676 L 66.024363 38.232229 L 66.537626 36.473028 L 66.894168 34.717744 L 67.086152 32.993805 L 67.113579 31.316883 L 66.976447 29.698731 L 66.674758 28.166776 L 66.212429 26.728854 L 65.593378 25.408474 L 64.82936 24.217389 L 63.920373 23.163435 L 62.88601 22.266203 L 61.730187 21.533529 L 60.468578 20.969331 L 59.112935 20.585363 L 57.682849 20.377706 L 56.190074 20.358116 L 54.650283 20.522674 L 53.083066 20.867462 L 51.504095 21.388562 L 49.929042 22.085973 L 48.377496 22.947943 L 51.829292 20.620625 " transform="matrix(0.99699, 0, 0, -0.99699, 77.795461, 75.542933)"/>
<path fill-rule="nonzero" fill="rgb(60.392761%, 13.726807%, 8.236694%)" fill-opacity="1" stroke-width="1.67422" stroke-linecap="butt" stroke-linejoin="miter" stroke="rgb(60.392761%, 13.726807%, 8.236694%)" stroke-opacity="1" stroke-miterlimit="10" d="M 7.433889 -0.000249186 L 2.788892 1.684815 L 4.357424 0.00138341 L 2.789735 -1.682874 Z M 7.433889 -0.000249186 " transform="matrix(-0.826884, -0.556968, -0.556968, 0.826884, 132.724947, 57.175804)"/>
<g fill="rgb(60.392761%, 13.726807%, 8.236694%)" fill-opacity="1">
<use xlink:href="#glyph-1-0" x="142.435311" y="38.597473"/>
<use xlink:href="#glyph-1-1" x="151.007191" y="38.597473"/>
<use xlink:href="#glyph-1-2" x="156.718466" y="38.597473"/>
<use xlink:href="#glyph-1-2" x="159.886982" y="38.597473"/>
</g>
<path fill="none" stroke-width="1.79329" stroke-linecap="butt" stroke-linejoin="miter" stroke="rgb(10.978699%, 43.920898%, 10.978699%)" stroke-opacity="1" stroke-miterlimit="10" d="M 70.690752 -13.599563 L 69.672061 -14.982633 L 68.704304 -16.479325 L 67.799236 -18.085723 L 66.964693 -19.778317 L 66.208511 -21.537519 L 65.542443 -23.347655 L 64.974327 -25.185217 L 64.50808 -27.034533 L 64.14762 -28.872096 L 63.896865 -30.674395 L 63.763652 -32.429679 L 63.744062 -34.110519 L 63.838095 -35.709081 L 64.049669 -37.197937 L 64.374867 -38.561416 L 64.805851 -39.791682 L 65.342623 -40.869144 L 65.977346 -41.785966 L 66.702184 -42.526476 L 67.513219 -43.086756 L 68.394779 -43.462888 L 69.342945 -43.647036 L 70.345964 -43.635282 L 71.392082 -43.431544 L 72.469544 -43.039739 L 73.566596 -42.459869 L 74.671484 -41.699769 L 75.776372 -40.763356 L 76.86167 -39.670222 L 77.919542 -38.428203 L 78.938233 -37.049051 L 79.905989 -35.548441 L 80.811057 -33.942043 L 81.645601 -32.249449 L 82.401783 -30.490247 L 83.063932 -28.680111 L 83.635966 -26.842549 L 84.102214 -24.993233 L 84.462674 -23.159589 L 84.713428 -21.353371 L 84.846642 -19.598087 L 84.866232 -17.917247 L 84.768281 -16.318685 L 84.560625 -14.833747 L 85.614578 -19.288562 " transform="matrix(0.99699, 0, 0, -0.99699, 77.795461, 75.542933)"/>
<path fill-rule="nonzero" fill="rgb(10.978699%, 43.920898%, 10.978699%)" fill-opacity="1" stroke-width="1.67422" stroke-linecap="butt" stroke-linejoin="miter" stroke="rgb(10.978699%, 43.920898%, 10.978699%)" stroke-opacity="1" stroke-miterlimit="10" d="M 7.432655 0.00119029 L 2.789755 1.683881 L 4.356263 0.000498804 L 2.78939 -1.686193 Z M 7.432655 0.00119029 " transform="matrix(-0.229607, -0.970141, -0.970141, 0.229607, 164.055399, 98.593263)"/>
<g fill="rgb(10.978699%, 43.920898%, 10.978699%)" fill-opacity="1">
<use xlink:href="#glyph-1-3" x="131.079594" y="134.67541"/>
<use xlink:href="#glyph-1-4" x="138.88666" y="134.67541"/>
<use xlink:href="#glyph-1-5" x="142.055176" y="134.67541"/>
<use xlink:href="#glyph-1-6" x="146.495072" y="134.67541"/>
</g>
<g fill="rgb(10.978699%, 43.920898%, 10.978699%)" fill-opacity="1">
<use xlink:href="#glyph-1-7" x="151.252812" y="134.67541"/>
</g>
<path fill="none" stroke-width="1.79329" stroke-linecap="butt" stroke-linejoin="miter" stroke="rgb(0%, 32.940674%, 54.902649%)" stroke-opacity="1" stroke-miterlimit="10" d="M -4.76684 -87.454676 L -6.604403 -87.156905 L -8.363604 -86.765101 L -10.036608 -86.283181 L -11.595989 -85.715065 L -13.029993 -85.072506 L -14.319029 -84.355504 L -15.451344 -83.575813 L -16.415183 -82.74127 L -17.198791 -81.859711 L -17.798252 -80.942889 L -18.197892 -79.99864 L -18.397712 -79.03872 L -18.397712 -78.074881 L -18.197892 -77.11496 L -17.798252 -76.17463 L -17.198791 -75.25389 L -16.415183 -74.376248 L -15.451344 -73.537787 L -14.319029 -72.758096 L -13.029993 -72.045013 L -11.595989 -71.398535 L -10.036608 -70.830419 L -8.363604 -70.3485 L -6.604403 -69.956696 L -4.76684 -69.658924 L -2.882262 -69.459104 L -0.96242 -69.357235 L 0.965257 -69.357235 L 2.88118 -69.459104 L 4.769677 -69.658924 L 6.603321 -69.956696 L 8.36644 -70.3485 L 10.035527 -70.830419 L 11.594908 -71.398535 L 13.028911 -72.041095 L 14.317948 -72.758096 L 15.450262 -73.537787 L 16.418019 -74.376248 L 17.201627 -75.25389 L 17.79717 -76.170712 L 18.19681 -77.11496 L 18.400549 -78.074881 L 18.400549 -79.03872 L 18.19681 -79.99864 L 20.136242 -75.43412 " transform="matrix(0.99699, 0, 0, -0.99699, 77.795461, 75.542933)"/>
<path fill-rule="nonzero" fill="rgb(0%, 32.940674%, 54.902649%)" fill-opacity="1" stroke-width="1.67422" stroke-linecap="butt" stroke-linejoin="miter" stroke="rgb(0%, 32.940674%, 54.902649%)" stroke-opacity="1" stroke-miterlimit="10" d="M 7.433116 -0.00115578 L 2.791993 1.683536 L 4.355494 -0.00204546 L 2.788906 -1.68527 Z M 7.433116 -0.00115578 " transform="matrix(-0.389923, 0.91755, 0.91755, 0.389923, 99.407214, 147.137227)"/>
<g fill="rgb(0%, 32.940674%, 54.902649%)" fill-opacity="1">
<use xlink:href="#glyph-1-8" x="51.66834" y="143.779923"/>
</g>
<g fill="rgb(0%, 32.940674%, 54.902649%)" fill-opacity="1">
<use xlink:href="#glyph-1-9" x="59.346281" y="143.779923"/>
</g>
<g fill="rgb(0%, 32.940674%, 54.902649%)" fill-opacity="1">
<use xlink:href="#glyph-1-10" x="64.580789" y="143.779923"/>
</g>
</svg>
