<?xml version="1.0" encoding="UTF-8"?>
<svg xmlns="http://www.w3.org/2000/svg" xmlns:xlink="http://www.w3.org/1999/xlink" width="441.416pt" height="288.621pt" viewBox="0 0 441.416 288.621">
<defs>
<g>
<g id="glyph-0-0">
<path d="M 2.046875 -3.984375 L 2.984375 -3.984375 C 3.1875 -3.984375 3.28125 -3.984375 3.28125 -4.1875 C 3.28125 -4.296875 3.1875 -4.296875 3 -4.296875 L 2.125 -4.296875 C 2.484375 -5.703125 2.53125 -5.90625 2.53125 -5.96875 C 2.53125 -6.125 2.421875 -6.234375 2.25 -6.234375 C 2.21875 -6.234375 1.9375 -6.21875 1.84375 -5.875 L 1.46875 -4.296875 L 0.53125 -4.296875 C 0.328125 -4.296875 0.234375 -4.296875 0.234375 -4.09375 C 0.234375 -3.984375 0.3125 -3.984375 0.5 -3.984375 L 1.390625 -3.984375 C 0.671875 -1.15625 0.625 -0.984375 0.625 -0.8125 C 0.625 -0.265625 1 0.109375 1.546875 0.109375 C 2.5625 0.109375 3.125 -1.34375 3.125 -1.421875 C 3.125 -1.515625 3.046875 -1.515625 3 -1.515625 C 2.921875 -1.515625 2.90625 -1.5 2.859375 -1.390625 C 2.421875 -0.34375 1.90625 -0.109375 1.5625 -0.109375 C 1.359375 -0.109375 1.25 -0.234375 1.25 -0.5625 C 1.25 -0.8125 1.28125 -0.875 1.3125 -1.046875 Z M 2.046875 -3.984375 "/>
</g>
<g id="glyph-0-1">
<path d="M 6.015625 -3.703125 C 6.015625 -4.15625 5.84375 -4.40625 5.625 -4.40625 C 5.359375 -4.40625 5.09375 -4.15625 5.09375 -3.9375 C 5.09375 -3.828125 5.140625 -3.71875 5.25 -3.640625 C 5.421875 -3.484375 5.59375 -3.21875 5.59375 -2.796875 C 5.59375 -2.40625 5.40625 -1.828125 5.09375 -1.375 C 4.796875 -0.953125 4.421875 -0.609375 3.96875 -0.609375 C 3.390625 -0.609375 3.078125 -0.96875 3 -1.5 C 3.109375 -1.765625 3.328125 -2.40625 3.328125 -2.671875 C 3.328125 -2.796875 3.28125 -2.890625 3.15625 -2.890625 C 3.078125 -2.890625 2.96875 -2.875 2.890625 -2.734375 C 2.78125 -2.53125 2.65625 -1.875 2.65625 -1.515625 C 2.328125 -1.0625 1.9375 -0.609375 1.296875 -0.609375 C 0.640625 -0.609375 0.4375 -1.1875 0.4375 -1.75 C 0.4375 -3 1.453125 -4.046875 1.453125 -4.171875 C 1.453125 -4.28125 1.375 -4.359375 1.265625 -4.359375 C 1.140625 -4.359375 1.0625 -4.234375 1 -4.140625 C 0.5 -3.40625 0.125 -2.21875 0.125 -1.3125 C 0.125 -0.625 0.34375 0.109375 1.171875 0.109375 C 1.875 0.109375 2.34375 -0.390625 2.703125 -0.9375 C 2.78125 -0.359375 3.171875 0.109375 3.796875 0.109375 C 4.5625 0.109375 5.046875 -0.5 5.40625 -1.25 C 5.640625 -1.734375 6.015625 -3.078125 6.015625 -3.703125 Z M 6.015625 -3.703125 "/>
</g>
<g id="glyph-1-0">
<path d="M 2.921875 2.484375 L 2.921875 1.875 L 1.875 1.875 L 1.875 -6.859375 L 2.921875 -6.859375 L 2.921875 -7.46875 L 1.28125 -7.46875 L 1.28125 2.484375 Z M 2.921875 2.484375 "/>
</g>
<g id="glyph-1-1">
<path d="M 4.125 -1.390625 C 4.125 -1.828125 3.9375 -2.171875 3.578125 -2.453125 C 3.1875 -2.734375 2.875 -2.796875 2.09375 -2.921875 C 1.734375 -3 1.078125 -3.109375 1.078125 -3.578125 C 1.078125 -4.1875 2.015625 -4.1875 2.203125 -4.1875 C 2.953125 -4.1875 3.328125 -3.90625 3.375 -3.359375 C 3.390625 -3.203125 3.390625 -3.15625 3.609375 -3.15625 C 3.84375 -3.15625 3.84375 -3.203125 3.84375 -3.4375 L 3.84375 -4.234375 C 3.84375 -4.421875 3.84375 -4.515625 3.65625 -4.515625 C 3.625 -4.515625 3.609375 -4.515625 3.21875 -4.3125 C 2.953125 -4.453125 2.609375 -4.515625 2.203125 -4.515625 C 1.90625 -4.515625 0.375 -4.515625 0.375 -3.203125 C 0.375 -2.8125 0.578125 -2.53125 0.78125 -2.375 C 1.171875 -2.015625 1.546875 -1.953125 2.3125 -1.828125 C 2.671875 -1.765625 3.421875 -1.625 3.421875 -1.046875 C 3.421875 -0.296875 2.515625 -0.296875 2.296875 -0.296875 C 1.234375 -0.296875 0.96875 -1.03125 0.859375 -1.453125 C 0.8125 -1.59375 0.75 -1.59375 0.609375 -1.59375 C 0.375 -1.59375 0.375 -1.53125 0.375 -1.296875 L 0.375 -0.21875 C 0.375 -0.03125 0.375 0.0625 0.5625 0.0625 C 0.625 0.0625 0.640625 0.0625 0.859375 -0.09375 L 1.109375 -0.265625 C 1.578125 0.0625 2.09375 0.0625 2.296875 0.0625 C 2.59375 0.0625 4.125 0.0625 4.125 -1.390625 Z M 4.125 -1.390625 "/>
</g>
<g id="glyph-1-2">
<path d="M 1.890625 2.484375 L 1.890625 -7.46875 L 0.25 -7.46875 L 0.25 -6.859375 L 1.28125 -6.859375 L 1.28125 1.875 L 0.25 1.875 L 0.25 2.484375 Z M 1.890625 2.484375 "/>
</g>
<g id="glyph-1-3">
<path d="M 4.40625 -3.65625 C 4.40625 -4.1875 3.859375 -4.484375 3.34375 -4.484375 C 2.640625 -4.484375 2.25 -3.984375 2.015625 -3.359375 L 2.015625 -4.484375 L 0.375 -4.40625 L 0.375 -3.9375 C 0.984375 -3.9375 1.0625 -3.9375 1.0625 -3.546875 L 1.0625 -0.46875 L 0.375 -0.46875 L 0.375 0 L 1.625 -0.03125 C 2 -0.03125 2.640625 -0.03125 3 0 L 3 -0.46875 L 2.125 -0.46875 L 2.125 -2.203125 C 2.125 -2.90625 2.375 -4.125 3.375 -4.125 C 3.375 -4.125 3.1875 -3.953125 3.1875 -3.65625 C 3.1875 -3.25 3.5 -3.0625 3.796875 -3.0625 C 4.078125 -3.0625 4.40625 -3.265625 4.40625 -3.65625 Z M 4.40625 -3.65625 "/>
</g>
<g id="glyph-1-4">
<path d="M 5.5 -0.234375 C 5.5 -0.46875 5.375 -0.46875 5.25 -0.46875 C 4.640625 -0.484375 4.640625 -0.609375 4.640625 -0.84375 L 4.640625 -2.96875 C 4.640625 -3.859375 3.9375 -4.515625 2.453125 -4.515625 C 1.875 -4.515625 0.671875 -4.46875 0.671875 -3.59375 C 0.671875 -3.15625 1.015625 -2.96875 1.28125 -2.96875 C 1.59375 -2.96875 1.90625 -3.171875 1.90625 -3.59375 C 1.90625 -3.890625 1.71875 -4.0625 1.6875 -4.078125 C 1.96875 -4.140625 2.296875 -4.15625 2.40625 -4.15625 C 3.15625 -4.15625 3.5 -3.734375 3.5 -2.96875 L 3.5 -2.640625 C 2.796875 -2.609375 0.265625 -2.515625 0.265625 -1.078125 C 0.265625 -0.125 1.5 0.0625 2.1875 0.0625 C 2.984375 0.0625 3.453125 -0.34375 3.671875 -0.765625 C 3.671875 -0.453125 3.671875 0 4.703125 0 L 5.1875 0 C 5.390625 0 5.5 0 5.5 -0.234375 Z M 3.5 -1.390625 C 3.5 -0.421875 2.59375 -0.296875 2.34375 -0.296875 C 1.828125 -0.296875 1.4375 -0.640625 1.4375 -1.078125 C 1.4375 -2.15625 3 -2.296875 3.5 -2.328125 Z M 3.5 -1.390625 "/>
</g>
<g id="glyph-1-5">
<path d="M 5.984375 0 L 5.984375 -0.46875 C 5.359375 -0.46875 5.296875 -0.46875 5.296875 -0.859375 L 5.296875 -6.90625 L 3.53125 -6.828125 L 3.53125 -6.359375 C 4.15625 -6.359375 4.21875 -6.359375 4.21875 -5.96875 L 4.21875 -4.03125 C 3.71875 -4.421875 3.203125 -4.484375 2.875 -4.484375 C 1.421875 -4.484375 0.375 -3.609375 0.375 -2.203125 C 0.375 -0.890625 1.296875 0.0625 2.765625 0.0625 C 3.375 0.0625 3.859375 -0.171875 4.15625 -0.421875 L 4.15625 0.0625 Z M 4.15625 -1.03125 C 4.03125 -0.84375 3.625 -0.296875 2.859375 -0.296875 C 1.65625 -0.296875 1.65625 -1.5 1.65625 -2.203125 C 1.65625 -2.671875 1.65625 -3.21875 1.90625 -3.609375 C 2.203125 -4.015625 2.671875 -4.125 2.96875 -4.125 C 3.546875 -4.125 3.9375 -3.796875 4.15625 -3.515625 Z M 4.15625 -1.03125 "/>
</g>
<g id="glyph-1-6">
<path d="M 5.078125 -7.15625 C 5.078125 -7.359375 4.921875 -7.46875 4.78125 -7.46875 C 4.5625 -7.46875 4.515625 -7.328125 4.453125 -7.1875 L 0.6875 1.984375 C 0.640625 2.109375 0.640625 2.1875 0.640625 2.1875 C 0.640625 2.375 0.796875 2.484375 0.9375 2.484375 C 1.140625 2.484375 1.1875 2.359375 1.25 2.203125 L 5.03125 -6.96875 C 5.078125 -7.09375 5.078125 -7.15625 5.078125 -7.15625 Z M 5.078125 -7.15625 "/>
</g>
<g id="glyph-2-0">
<path d="M 3.59375 -2.21875 C 3.59375 -2.984375 3.5 -3.546875 3.1875 -4.03125 C 2.96875 -4.34375 2.53125 -4.625 1.984375 -4.625 C 0.359375 -4.625 0.359375 -2.71875 0.359375 -2.21875 C 0.359375 -1.71875 0.359375 0.140625 1.984375 0.140625 C 3.59375 0.140625 3.59375 -1.71875 3.59375 -2.21875 Z M 2.96875 -2.3125 C 2.96875 -1.796875 2.96875 -1.28125 2.875 -0.84375 C 2.734375 -0.203125 2.265625 -0.0625 1.984375 -0.0625 C 1.65625 -0.0625 1.234375 -0.25 1.09375 -0.8125 C 1 -1.21875 1 -1.796875 1 -2.3125 C 1 -2.828125 1 -3.359375 1.09375 -3.734375 C 1.25 -4.28125 1.6875 -4.4375 1.984375 -4.4375 C 2.359375 -4.4375 2.71875 -4.203125 2.84375 -3.796875 C 2.953125 -3.421875 2.96875 -2.921875 2.96875 -2.3125 Z M 2.96875 -2.3125 "/>
</g>
<g id="glyph-2-1">
<path d="M 1.53125 -0.390625 C 1.53125 -0.640625 1.328125 -0.796875 1.125 -0.796875 C 0.890625 -0.796875 0.71875 -0.609375 0.71875 -0.40625 C 0.71875 -0.15625 0.921875 0 1.125 0 C 1.359375 0 1.53125 -0.1875 1.53125 -0.390625 Z M 1.53125 -0.390625 "/>
</g>
<g id="glyph-2-2">
<path d="M 3.515625 -1.40625 C 3.515625 -2.1875 2.921875 -2.90625 2.0625 -2.90625 C 1.75 -2.90625 1.390625 -2.84375 1.078125 -2.578125 L 1.078125 -3.890625 C 1.4375 -3.796875 1.640625 -3.796875 1.75 -3.796875 C 2.671875 -3.796875 3.21875 -4.421875 3.21875 -4.53125 C 3.21875 -4.609375 3.171875 -4.625 3.140625 -4.625 C 3.140625 -4.625 3.109375 -4.625 3.078125 -4.609375 C 2.90625 -4.546875 2.546875 -4.40625 2.03125 -4.40625 C 1.828125 -4.40625 1.46875 -4.421875 1.015625 -4.59375 C 0.9375 -4.625 0.921875 -4.625 0.921875 -4.625 C 0.828125 -4.625 0.828125 -4.546875 0.828125 -4.4375 L 0.828125 -2.390625 C 0.828125 -2.265625 0.828125 -2.1875 0.9375 -2.1875 C 1 -2.1875 1.015625 -2.1875 1.078125 -2.28125 C 1.375 -2.65625 1.8125 -2.71875 2.046875 -2.71875 C 2.46875 -2.71875 2.65625 -2.390625 2.6875 -2.328125 C 2.8125 -2.09375 2.859375 -1.828125 2.859375 -1.421875 C 2.859375 -1.21875 2.859375 -0.8125 2.640625 -0.5 C 2.46875 -0.25 2.171875 -0.078125 1.828125 -0.078125 C 1.375 -0.078125 0.90625 -0.328125 0.734375 -0.796875 C 1 -0.78125 1.140625 -0.953125 1.140625 -1.140625 C 1.140625 -1.4375 0.875 -1.484375 0.78125 -1.484375 C 0.78125 -1.484375 0.4375 -1.484375 0.4375 -1.109375 C 0.4375 -0.484375 1.015625 0.140625 1.84375 0.140625 C 2.734375 0.140625 3.515625 -0.515625 3.515625 -1.40625 Z M 3.515625 -1.40625 "/>
</g>
<g id="glyph-2-3">
<path d="M 3.296875 0 L 3.296875 -0.25 L 3.03125 -0.25 C 2.328125 -0.25 2.328125 -0.34375 2.328125 -0.578125 L 2.328125 -4.4375 C 2.328125 -4.625 2.328125 -4.625 2.125 -4.625 C 1.671875 -4.1875 1.046875 -4.1875 0.765625 -4.1875 L 0.765625 -3.9375 C 0.921875 -3.9375 1.390625 -3.9375 1.765625 -4.125 L 1.765625 -0.578125 C 1.765625 -0.34375 1.765625 -0.25 1.078125 -0.25 L 0.8125 -0.25 L 0.8125 0 L 2.046875 -0.03125 Z M 3.296875 0 "/>
</g>
<g id="glyph-2-4">
<path d="M 3.515625 -1.265625 L 3.28125 -1.265625 C 3.265625 -1.109375 3.1875 -0.703125 3.09375 -0.640625 C 3.046875 -0.59375 2.515625 -0.59375 2.40625 -0.59375 L 1.125 -0.59375 C 1.859375 -1.234375 2.109375 -1.4375 2.515625 -1.765625 C 3.03125 -2.171875 3.515625 -2.609375 3.515625 -3.265625 C 3.515625 -4.109375 2.78125 -4.625 1.890625 -4.625 C 1.03125 -4.625 0.4375 -4.015625 0.4375 -3.375 C 0.4375 -3.03125 0.734375 -2.984375 0.8125 -2.984375 C 0.96875 -2.984375 1.171875 -3.109375 1.171875 -3.359375 C 1.171875 -3.484375 1.125 -3.734375 0.765625 -3.734375 C 0.984375 -4.21875 1.453125 -4.375 1.78125 -4.375 C 2.484375 -4.375 2.84375 -3.828125 2.84375 -3.265625 C 2.84375 -2.65625 2.40625 -2.1875 2.1875 -1.9375 L 0.515625 -0.265625 C 0.4375 -0.203125 0.4375 -0.1875 0.4375 0 L 3.3125 0 Z M 3.515625 -1.265625 "/>
</g>
<g id="glyph-2-5">
<path d="M 3.578125 -1.203125 C 3.578125 -1.75 3.140625 -2.296875 2.375 -2.453125 C 3.09375 -2.71875 3.359375 -3.234375 3.359375 -3.671875 C 3.359375 -4.21875 2.734375 -4.625 1.953125 -4.625 C 1.1875 -4.625 0.59375 -4.25 0.59375 -3.6875 C 0.59375 -3.453125 0.75 -3.328125 0.953125 -3.328125 C 1.171875 -3.328125 1.3125 -3.484375 1.3125 -3.671875 C 1.3125 -3.875 1.171875 -4.03125 0.953125 -4.046875 C 1.203125 -4.34375 1.671875 -4.421875 1.9375 -4.421875 C 2.25 -4.421875 2.6875 -4.265625 2.6875 -3.671875 C 2.6875 -3.375 2.59375 -3.046875 2.40625 -2.84375 C 2.1875 -2.578125 1.984375 -2.5625 1.640625 -2.53125 C 1.46875 -2.515625 1.453125 -2.515625 1.421875 -2.515625 C 1.421875 -2.515625 1.34375 -2.5 1.34375 -2.421875 C 1.34375 -2.328125 1.40625 -2.328125 1.53125 -2.328125 L 1.90625 -2.328125 C 2.453125 -2.328125 2.84375 -1.953125 2.84375 -1.203125 C 2.84375 -0.34375 2.328125 -0.078125 1.9375 -0.078125 C 1.65625 -0.078125 1.03125 -0.15625 0.75 -0.578125 C 1.078125 -0.578125 1.15625 -0.8125 1.15625 -0.96875 C 1.15625 -1.1875 0.984375 -1.34375 0.765625 -1.34375 C 0.578125 -1.34375 0.375 -1.21875 0.375 -0.9375 C 0.375 -0.28125 1.09375 0.140625 1.9375 0.140625 C 2.90625 0.140625 3.578125 -0.515625 3.578125 -1.203125 Z M 3.578125 -1.203125 "/>
</g>
<g id="glyph-2-6">
<path d="M 4.0625 -1.5 C 4.0625 -2.359375 3.359375 -3.078125 2.4375 -3.078125 C 2.015625 -3.078125 1.640625 -2.90625 1.390625 -2.65625 L 1.390625 -4.84375 L 0.34375 -4.765625 L 0.34375 -4.515625 C 0.8125 -4.515625 0.859375 -4.453125 0.859375 -4.109375 L 0.859375 0 L 1.09375 0 L 1.34375 -0.421875 C 1.609375 -0.078125 2 0.0625 2.359375 0.0625 C 3.28125 0.0625 4.0625 -0.625 4.0625 -1.5 Z M 3.4375 -1.515625 C 3.4375 -1.359375 3.4375 -0.828125 3.15625 -0.5 C 2.875 -0.1875 2.53125 -0.125 2.328125 -0.125 C 1.765625 -0.125 1.484375 -0.5625 1.421875 -0.703125 L 1.421875 -2.328125 C 1.609375 -2.65625 1.984375 -2.875 2.40625 -2.875 C 2.796875 -2.875 3.078125 -2.65625 3.21875 -2.453125 C 3.359375 -2.25 3.4375 -1.96875 3.4375 -1.515625 Z M 3.4375 -1.515625 "/>
</g>
<g id="glyph-2-7">
<path d="M 3.796875 -0.625 L 3.796875 -1.015625 L 3.546875 -1.015625 L 3.546875 -0.640625 C 3.546875 -0.5625 3.546875 -0.234375 3.296875 -0.234375 C 3.03125 -0.234375 3.03125 -0.5625 3.03125 -0.640625 L 3.03125 -1.875 C 3.03125 -2.234375 3.03125 -2.5 2.71875 -2.765625 C 2.4375 -3 2.09375 -3.109375 1.6875 -3.109375 C 1.03125 -3.109375 0.5625 -2.859375 0.5625 -2.4375 C 0.5625 -2.203125 0.703125 -2.09375 0.890625 -2.09375 C 1.078125 -2.09375 1.21875 -2.234375 1.21875 -2.421875 C 1.21875 -2.53125 1.15625 -2.6875 0.96875 -2.734375 C 1.21875 -2.90625 1.625 -2.90625 1.671875 -2.90625 C 2.0625 -2.90625 2.484375 -2.65625 2.484375 -2.0625 L 2.484375 -1.859375 C 2.109375 -1.84375 1.640625 -1.8125 1.140625 -1.625 C 0.515625 -1.40625 0.3125 -1.015625 0.3125 -0.703125 C 0.3125 -0.109375 1.03125 0.0625 1.53125 0.0625 C 2.09375 0.0625 2.421875 -0.25 2.5625 -0.515625 C 2.59375 -0.234375 2.78125 0.03125 3.09375 0.03125 C 3.09375 0.03125 3.796875 0.03125 3.796875 -0.625 Z M 2.484375 -0.984375 C 2.484375 -0.3125 1.90625 -0.125 1.59375 -0.125 C 1.234375 -0.125 0.90625 -0.359375 0.90625 -0.703125 C 0.90625 -1.09375 1.234375 -1.625 2.484375 -1.671875 Z M 2.484375 -0.984375 "/>
</g>
<g id="glyph-2-8">
<path d="M 4.109375 0 L 4.109375 -0.25 C 3.65625 -0.25 3.59375 -0.25 3.59375 -0.546875 L 3.59375 -2.109375 C 3.59375 -2.71875 3.296875 -3.078125 2.546875 -3.078125 C 1.96875 -3.078125 1.609375 -2.765625 1.40625 -2.390625 L 1.40625 -3.078125 L 0.375 -3 L 0.375 -2.75 C 0.84375 -2.75 0.90625 -2.703125 0.90625 -2.359375 L 0.90625 -0.546875 C 0.90625 -0.25 0.828125 -0.25 0.375 -0.25 L 0.375 0 C 0.375 0 0.875 -0.03125 1.171875 -0.03125 C 1.421875 -0.03125 1.90625 0 1.96875 0 L 1.96875 -0.25 C 1.515625 -0.25 1.453125 -0.25 1.453125 -0.546875 L 1.453125 -1.8125 C 1.453125 -2.53125 2.03125 -2.875 2.484375 -2.875 C 2.96875 -2.875 3.03125 -2.5 3.03125 -2.140625 L 3.03125 -0.546875 C 3.03125 -0.25 2.96875 -0.25 2.515625 -0.25 L 2.515625 0 C 2.515625 0 3.015625 -0.03125 3.3125 -0.03125 C 3.5625 -0.03125 4.046875 0 4.109375 0 Z M 4.109375 0 "/>
</g>
<g id="glyph-2-9">
<path d="M 4.046875 0 L 4.046875 -0.25 C 3.578125 -0.25 3.53125 -0.296875 3.53125 -0.640625 L 3.53125 -4.84375 L 2.484375 -4.765625 L 2.484375 -4.515625 C 2.953125 -4.515625 3 -4.453125 3 -4.125 L 3 -2.671875 C 2.75 -2.921875 2.40625 -3.078125 2.03125 -3.078125 C 1.09375 -3.078125 0.328125 -2.375 0.328125 -1.5 C 0.328125 -0.625 1.0625 0.0625 1.9375 0.0625 C 2.515625 0.0625 2.859375 -0.234375 2.96875 -0.359375 L 2.96875 0.0625 Z M 2.96875 -0.734375 C 2.796875 -0.40625 2.4375 -0.125 1.984375 -0.125 C 1.59375 -0.125 1.3125 -0.359375 1.171875 -0.5625 C 1.03125 -0.765625 0.953125 -1.046875 0.953125 -1.484375 C 0.953125 -1.65625 0.953125 -2.171875 1.234375 -2.5 C 1.515625 -2.8125 1.859375 -2.875 2.0625 -2.875 C 2.390625 -2.875 2.703125 -2.71875 2.890625 -2.46875 C 2.96875 -2.359375 2.96875 -2.359375 2.96875 -2.21875 Z M 2.96875 -0.734375 "/>
</g>
<g id="glyph-3-0">
<path d="M 6.96875 -3.859375 L 6.78125 -6.03125 L 0.578125 -6.03125 L 0.390625 -3.859375 L 0.84375 -3.859375 C 0.9375 -4.859375 1.015625 -5.59375 2.328125 -5.59375 L 3.03125 -5.59375 L 3.03125 -0.4375 L 1.671875 -0.4375 L 1.671875 0 C 2.0625 -0.03125 3.21875 -0.03125 3.6875 -0.03125 C 4.15625 -0.03125 5.3125 -0.03125 5.703125 0 L 5.703125 -0.4375 L 4.328125 -0.4375 L 4.328125 -5.59375 L 5.046875 -5.59375 C 6.359375 -5.59375 6.421875 -4.828125 6.515625 -3.859375 Z M 6.96875 -3.859375 "/>
</g>
<g id="glyph-3-1">
<path d="M 5.09375 -0.21875 C 5.09375 -0.4375 4.953125 -0.4375 4.859375 -0.4375 C 4.28125 -0.453125 4.28125 -0.53125 4.28125 -0.75 L 4.28125 -2.671875 C 4.28125 -3.453125 3.640625 -4.0625 2.265625 -4.0625 C 1.75 -4.0625 0.609375 -4.03125 0.609375 -3.21875 C 0.609375 -2.8125 0.90625 -2.625 1.1875 -2.625 C 1.5 -2.625 1.765625 -2.84375 1.765625 -3.203125 C 1.765625 -3.46875 1.625 -3.609375 1.59375 -3.640625 C 1.6875 -3.65625 1.890625 -3.703125 2.234375 -3.703125 C 2.875 -3.703125 3.234375 -3.375 3.234375 -2.671875 L 3.234375 -2.375 C 1.75 -2.375 0.25 -2 0.25 -1 C 0.25 -0.109375 1.375 0.046875 2.015625 0.046875 C 2.6875 0.046875 3.15625 -0.234375 3.40625 -0.65625 C 3.40625 -0.4375 3.40625 0 4.359375 0 L 4.796875 0 C 4.96875 0 5.09375 0 5.09375 -0.21875 Z M 3.234375 -1.25 C 3.234375 -0.296875 2.203125 -0.296875 2.171875 -0.296875 C 1.703125 -0.296875 1.328125 -0.59375 1.328125 -1 C 1.328125 -1.296875 1.5 -2 3.234375 -2.078125 Z M 3.234375 -1.25 "/>
</g>
<g id="glyph-3-2">
<path d="M 4.078125 -3.28125 C 4.078125 -3.734375 3.609375 -4.03125 3.078125 -4.03125 C 2.453125 -4.03125 2.0625 -3.578125 1.875 -3.046875 L 1.859375 -3.046875 L 1.859375 -4.03125 L 0.359375 -3.953125 L 0.359375 -3.515625 C 0.90625 -3.515625 0.96875 -3.515625 0.96875 -3.171875 L 0.96875 -0.4375 L 0.359375 -0.4375 L 0.359375 0 L 1.515625 -0.03125 C 1.734375 -0.03125 2.25 -0.03125 2.734375 0 L 2.734375 -0.4375 L 1.96875 -0.4375 L 1.96875 -1.953125 C 1.96875 -2.609375 2.21875 -3.640625 3.078125 -3.671875 C 2.984375 -3.578125 2.9375 -3.421875 2.9375 -3.28125 C 2.9375 -2.890625 3.25 -2.703125 3.5 -2.703125 C 3.78125 -2.703125 4.078125 -2.90625 4.078125 -3.28125 Z M 4.078125 -3.28125 "/>
</g>
<g id="glyph-3-3">
<path d="M 5.140625 -3.53125 C 5.140625 -3.765625 4.96875 -4.078125 4.5625 -4.078125 C 4.125 -4.078125 3.75 -3.875 3.578125 -3.75 C 3.203125 -3.96875 2.78125 -4.03125 2.359375 -4.03125 C 0.984375 -4.03125 0.515625 -3.28125 0.515625 -2.703125 C 0.515625 -2.21875 0.828125 -1.890625 0.984375 -1.75 C 0.796875 -1.546875 0.6875 -1.25 0.6875 -0.96875 C 0.6875 -0.59375 0.875 -0.28125 1.0625 -0.109375 C 0.390625 0.078125 0.296875 0.453125 0.296875 0.65625 C 0.296875 1.1875 0.90625 1.796875 2.640625 1.796875 C 4.203125 1.796875 5 1.3125 5 0.625 C 5 0.3125 4.875 -0.234375 4.265625 -0.53125 C 3.75 -0.765625 3.265625 -0.765625 2.375 -0.765625 L 1.9375 -0.765625 C 1.640625 -0.765625 1.515625 -0.765625 1.375 -0.875 C 1.234375 -1 1.15625 -1.140625 1.15625 -1.328125 C 1.15625 -1.5 1.234375 -1.609375 1.234375 -1.609375 C 1.5625 -1.4375 1.953125 -1.375 2.359375 -1.375 C 3.71875 -1.375 4.1875 -2.109375 4.1875 -2.6875 C 4.1875 -3.0625 4.015625 -3.359375 3.828125 -3.546875 C 4.078125 -3.671875 4.25 -3.6875 4.375 -3.703125 C 4.359375 -3.671875 4.34375 -3.609375 4.34375 -3.53125 C 4.34375 -3.28125 4.53125 -3.125 4.75 -3.125 C 4.9375 -3.125 5.140625 -3.265625 5.140625 -3.53125 Z M 3.15625 -2.703125 C 3.15625 -2.296875 3.15625 -1.734375 2.359375 -1.734375 C 1.546875 -1.734375 1.546875 -2.296875 1.546875 -2.6875 C 1.546875 -3.09375 1.546875 -3.671875 2.359375 -3.671875 C 3.15625 -3.671875 3.15625 -3.09375 3.15625 -2.703125 Z M 4.203125 0.65625 C 4.203125 0.953125 3.875 1.4375 2.65625 1.4375 C 1.46875 1.4375 1.09375 1 1.09375 0.640625 C 1.09375 0.125 1.671875 0.125 1.796875 0.125 L 2.890625 0.125 C 3.15625 0.125 4.203125 0.125 4.203125 0.65625 Z M 4.203125 0.65625 "/>
</g>
<g id="glyph-3-4">
<path d="M 4.5625 -1.03125 C 4.5625 -1.21875 4.375 -1.21875 4.328125 -1.21875 C 4.15625 -1.21875 4.140625 -1.15625 4.09375 -1.03125 C 3.890625 -0.578125 3.34375 -0.328125 2.78125 -0.328125 C 1.5 -0.328125 1.484375 -1.484375 1.484375 -1.921875 L 4.265625 -1.921875 C 4.453125 -1.921875 4.5625 -1.921875 4.5625 -2.171875 C 4.5625 -2.375 4.546875 -3.15625 3.953125 -3.640625 C 3.546875 -3.96875 3.015625 -4.0625 2.578125 -4.0625 C 1.046875 -4.0625 0.296875 -3.09375 0.296875 -2.015625 C 0.296875 -0.84375 1.1875 0.046875 2.703125 0.046875 C 4.1875 0.046875 4.5625 -0.890625 4.5625 -1.03125 Z M 3.6875 -2.25 L 1.484375 -2.25 C 1.5 -2.65625 1.546875 -3.703125 2.578125 -3.703125 C 3.625 -3.703125 3.65625 -2.609375 3.6875 -2.25 Z M 3.6875 -2.25 "/>
</g>
<g id="glyph-3-5">
<path d="M 3.515625 -1.09375 L 3.515625 -1.578125 L 3.0625 -1.578125 L 3.0625 -1.125 C 3.0625 -0.5 2.734375 -0.328125 2.515625 -0.328125 C 2 -0.328125 2 -0.875 2 -1.078125 L 2 -3.53125 L 3.34375 -3.53125 L 3.34375 -3.96875 L 2 -3.96875 L 2 -5.6875 L 1.546875 -5.6875 C 1.53125 -4.84375 1.109375 -3.921875 0.203125 -3.890625 L 0.203125 -3.53125 L 0.953125 -3.53125 L 0.953125 -1.09375 C 0.953125 -0.078125 1.828125 0.046875 2.390625 0.046875 C 3.09375 0.046875 3.515625 -0.453125 3.515625 -1.09375 Z M 3.515625 -1.09375 "/>
</g>
<g id="glyph-3-6">
<path d="M 7.90625 -0.875 C 7.90625 -1.0625 7.765625 -1.078125 7.671875 -1.078125 C 7.46875 -1.078125 7.453125 -0.953125 7.453125 -0.875 C 7.40625 -0.4375 7.125 -0.25 6.875 -0.25 C 6.34375 -0.25 6.265625 -0.78125 6.15625 -1.5625 C 6.0625 -2.21875 6 -2.703125 5.109375 -3.03125 C 5.875 -3.25 6.609375 -3.71875 6.609375 -4.46875 C 6.609375 -5.421875 5.546875 -6.140625 3.859375 -6.140625 L 0.375 -6.140625 L 0.375 -5.703125 L 1.34375 -5.703125 L 1.34375 -0.4375 L 0.375 -0.4375 L 0.375 0 C 0.703125 -0.03125 1.59375 -0.03125 1.953125 -0.03125 C 2.328125 -0.03125 3.234375 -0.03125 3.546875 0 L 3.546875 -0.4375 L 2.59375 -0.4375 L 2.59375 -2.890625 L 3.6875 -2.890625 C 4.0625 -2.890625 4.296875 -2.8125 4.5625 -2.546875 C 4.8125 -2.296875 4.8125 -2.078125 4.8125 -1.484375 C 4.8125 -0.90625 4.8125 -0.5 5.34375 -0.171875 C 5.734375 0.046875 6.296875 0.109375 6.796875 0.109375 C 7.75 0.109375 7.90625 -0.671875 7.90625 -0.875 Z M 5.203125 -4.46875 C 5.203125 -3.96875 5.1875 -3.25 3.703125 -3.25 L 2.59375 -3.25 L 2.59375 -5.703125 L 3.71875 -5.703125 C 5.171875 -5.703125 5.203125 -5.015625 5.203125 -4.46875 Z M 5.203125 -4.46875 "/>
</g>
<g id="glyph-3-7">
<path d="M 3.828125 -1.25 C 3.828125 -1.703125 3.5625 -2 3.40625 -2.125 C 3 -2.46875 2.71875 -2.515625 2 -2.625 C 1.578125 -2.703125 1.015625 -2.796875 1.015625 -3.203125 C 1.015625 -3.734375 1.84375 -3.734375 2.046875 -3.734375 C 3.046875 -3.734375 3.078125 -3.203125 3.09375 -2.96875 C 3.109375 -2.84375 3.234375 -2.84375 3.328125 -2.84375 C 3.546875 -2.84375 3.546875 -2.890625 3.546875 -3.09375 L 3.546875 -3.796875 C 3.546875 -3.953125 3.546875 -4.0625 3.375 -4.0625 C 3.28125 -4.0625 3.140625 -3.984375 2.984375 -3.890625 C 2.6875 -4.015625 2.34375 -4.0625 2.046875 -4.0625 C 1.765625 -4.0625 0.34375 -4.0625 0.34375 -2.875 C 0.34375 -1.9375 1.515625 -1.734375 1.828125 -1.6875 C 2.5625 -1.5625 3.15625 -1.453125 3.15625 -0.953125 C 3.15625 -0.296875 2.3125 -0.296875 2.125 -0.296875 C 1.671875 -0.296875 1.078125 -0.421875 0.828125 -1.25 C 0.78125 -1.390625 0.765625 -1.421875 0.578125 -1.421875 C 0.34375 -1.421875 0.34375 -1.375 0.34375 -1.15625 L 0.34375 -0.203125 C 0.34375 -0.046875 0.34375 0.046875 0.53125 0.046875 C 0.59375 0.046875 0.609375 0.046875 0.8125 -0.078125 L 1.046875 -0.21875 C 1.46875 0.046875 1.9375 0.046875 2.125 0.046875 C 2.390625 0.046875 3.828125 0.046875 3.828125 -1.25 Z M 3.828125 -1.25 "/>
</g>
<g id="glyph-3-8">
<path d="M 5.53125 -1.984375 C 5.53125 -3.171875 4.703125 -4.03125 3.359375 -4.03125 C 2.625 -4.03125 2.140625 -3.71875 1.96875 -3.59375 L 1.96875 -4.03125 L 0.359375 -3.953125 L 0.359375 -3.515625 C 0.546875 -3.515625 0.6875 -3.515625 0.8125 -3.484375 C 0.96875 -3.46875 0.96875 -3.359375 0.96875 -3.171875 L 0.96875 1.296875 L 0.359375 1.296875 L 0.359375 1.734375 L 1.5 1.703125 L 2.625 1.734375 L 2.625 1.296875 L 2.015625 1.296875 L 2.015625 -0.34375 C 2.546875 0.046875 3.046875 0.046875 3.21875 0.046875 C 4.625 0.046875 5.53125 -0.796875 5.53125 -1.984375 Z M 4.328125 -2 C 4.328125 -0.75 3.703125 -0.296875 3.109375 -0.296875 C 2.65625 -0.296875 2.265625 -0.5625 2.015625 -0.9375 L 2.015625 -3.09375 C 2.1875 -3.28125 2.609375 -3.640625 3.21875 -3.640625 C 3.84375 -3.640625 4.328125 -3.09375 4.328125 -2 Z M 4.328125 -2 "/>
</g>
<g id="glyph-3-9">
<path d="M 5 -1.953125 C 5 -3.125 4.171875 -4.0625 2.65625 -4.0625 C 1.078125 -4.0625 0.296875 -3.078125 0.296875 -1.953125 C 0.296875 -0.84375 1.09375 0.046875 2.640625 0.046875 C 4.25 0.046875 5 -0.890625 5 -1.953125 Z M 3.8125 -2.046875 C 3.8125 -1.28125 3.8125 -0.328125 2.65625 -0.328125 C 1.484375 -0.328125 1.484375 -1.265625 1.484375 -2.046875 C 1.484375 -2.796875 1.484375 -3.703125 2.640625 -3.703125 C 3.8125 -3.703125 3.8125 -2.796875 3.8125 -2.046875 Z M 3.8125 -2.046875 "/>
</g>
<g id="glyph-3-10">
<path d="M 5.640625 0 L 5.640625 -0.4375 L 5.03125 -0.4375 L 5.03125 -2.734375 C 5.03125 -3.796875 4.390625 -4.03125 3.609375 -4.03125 C 2.5 -4.03125 2.0625 -3.21875 2 -3.09375 L 2 -4.03125 L 0.453125 -3.953125 L 0.453125 -3.515625 C 0.984375 -3.515625 1.0625 -3.515625 1.0625 -3.171875 L 1.0625 -0.4375 L 0.453125 -0.4375 L 0.453125 0 L 1.578125 -0.03125 L 2.71875 0 L 2.71875 -0.4375 L 2.109375 -0.4375 L 2.109375 -2.28125 C 2.109375 -3.28125 2.921875 -3.671875 3.46875 -3.671875 C 3.8125 -3.671875 3.984375 -3.484375 3.984375 -2.8125 L 3.984375 -0.4375 L 3.375 -0.4375 L 3.375 0 L 4.5 -0.03125 Z M 5.640625 0 "/>
</g>
<g id="glyph-3-11">
<path d="M 7.359375 -3.03125 C 7.359375 -4.90625 6.09375 -6.25 3.96875 -6.25 C 1.84375 -6.25 0.59375 -4.890625 0.59375 -3.03125 C 0.59375 -1.234375 1.828125 0.109375 3.96875 0.109375 C 6.109375 0.109375 7.359375 -1.21875 7.359375 -3.03125 Z M 5.953125 -3.171875 C 5.953125 -2.375 5.875 -1.796875 5.59375 -1.25 C 5.265625 -0.640625 4.625 -0.296875 3.96875 -0.296875 C 3.421875 -0.296875 2.78125 -0.546875 2.40625 -1.1875 C 2.03125 -1.796875 2 -2.578125 2 -3.171875 C 2 -3.96875 2.078125 -4.640625 2.515625 -5.203125 C 2.75 -5.5 3.265625 -5.859375 3.96875 -5.859375 C 4.5625 -5.859375 5.125 -5.625 5.484375 -5.140625 C 5.921875 -4.5625 5.953125 -3.796875 5.953125 -3.171875 Z M 5.953125 -3.171875 "/>
</g>
<g id="glyph-3-12">
<path d="M 5.34375 -3.53125 L 5.34375 -3.96875 C 5.078125 -3.953125 4.859375 -3.953125 4.609375 -3.953125 C 4.34375 -3.953125 4.0625 -3.953125 3.8125 -3.96875 L 3.8125 -3.53125 C 4.0625 -3.53125 4.140625 -3.484375 4.21875 -3.453125 C 4.203125 -3.421875 4.203125 -3.40625 4.15625 -3.328125 L 3.09375 -1.09375 L 1.921875 -3.53125 L 2.375 -3.53125 L 2.375 -3.96875 L 1.28125 -3.953125 C 0.953125 -3.953125 0.78125 -3.953125 0.25 -3.96875 L 0.25 -3.53125 L 0.8125 -3.53125 L 2.421875 -0.203125 C 2.5 -0.03125 2.5625 0.046875 2.796875 0.046875 C 3.015625 0.046875 3.09375 -0.03125 3.171875 -0.203125 L 4.6875 -3.34375 C 4.75 -3.46875 4.765625 -3.53125 5.34375 -3.53125 Z M 5.34375 -3.53125 "/>
</g>
<g id="glyph-3-13">
<path d="M 5.640625 0 L 5.640625 -0.4375 L 5.03125 -0.4375 L 5.03125 -2.734375 C 5.03125 -3.796875 4.390625 -4.03125 3.609375 -4.03125 C 2.75 -4.03125 2.28125 -3.546875 2.046875 -3.171875 L 2.046875 -6.21875 L 0.453125 -6.140625 L 0.453125 -5.703125 C 0.984375 -5.703125 1.0625 -5.703125 1.0625 -5.359375 L 1.0625 -0.4375 L 0.453125 -0.4375 L 0.453125 0 L 1.578125 -0.03125 L 2.71875 0 L 2.71875 -0.4375 L 2.109375 -0.4375 L 2.109375 -2.28125 C 2.109375 -3.28125 2.921875 -3.671875 3.46875 -3.671875 C 3.8125 -3.671875 3.984375 -3.484375 3.984375 -2.8125 L 3.984375 -0.4375 L 3.375 -0.4375 L 3.375 0 L 4.5 -0.03125 Z M 5.640625 0 "/>
</g>
<g id="glyph-3-14">
<path d="M 2.609375 0 L 2.609375 -0.4375 L 2.0625 -0.4375 L 2.0625 -4.03125 L 0.5 -3.953125 L 0.5 -3.515625 C 1.015625 -3.515625 1.078125 -3.515625 1.078125 -3.171875 L 1.078125 -0.4375 L 0.46875 -0.4375 L 0.46875 0 C 1.0625 -0.015625 1.1875 -0.03125 1.5625 -0.03125 C 2 -0.03125 2.109375 -0.015625 2.609375 0 Z M 2.171875 -5.421875 C 2.171875 -5.84375 1.828125 -6.125 1.46875 -6.125 C 1.09375 -6.125 0.765625 -5.8125 0.765625 -5.421875 C 0.765625 -5 1.109375 -4.71875 1.46875 -4.71875 C 1.84375 -4.71875 2.171875 -5.015625 2.171875 -5.421875 Z M 2.171875 -5.421875 "/>
</g>
<g id="glyph-3-15">
<path d="M 8.59375 0 L 8.59375 -0.4375 L 7.984375 -0.4375 L 7.984375 -2.734375 C 7.984375 -3.78125 7.34375 -4.03125 6.546875 -4.03125 C 5.625 -4.03125 5.171875 -3.46875 5 -3.1875 C 4.796875 -4 4.015625 -4.03125 3.609375 -4.03125 C 2.5 -4.03125 2.0625 -3.21875 2 -3.09375 L 2 -4.03125 L 0.453125 -3.953125 L 0.453125 -3.515625 C 0.984375 -3.515625 1.0625 -3.515625 1.0625 -3.171875 L 1.0625 -0.4375 L 0.453125 -0.4375 L 0.453125 0 L 1.578125 -0.03125 L 2.71875 0 L 2.71875 -0.4375 L 2.109375 -0.4375 L 2.109375 -2.28125 C 2.109375 -3.265625 2.921875 -3.671875 3.46875 -3.671875 C 3.8125 -3.671875 4 -3.484375 4 -2.8125 L 4 -0.4375 L 3.390625 -0.4375 L 3.390625 0 L 4.515625 -0.03125 L 5.65625 0 L 5.65625 -0.4375 L 5.046875 -0.4375 L 5.046875 -2.28125 C 5.046875 -3.265625 5.859375 -3.671875 6.40625 -3.671875 C 6.734375 -3.671875 6.9375 -3.484375 6.9375 -2.8125 L 6.9375 -0.4375 L 6.328125 -0.4375 L 6.328125 0 L 7.453125 -0.03125 Z M 8.59375 0 "/>
</g>
<g id="glyph-3-16">
<path d="M 5.28125 -1.8125 C 5.28125 -2.78125 4.5625 -3.53125 3.703125 -3.703125 L 2.40625 -3.984375 C 1.5 -4.1875 1.484375 -4.78125 1.484375 -4.90625 C 1.484375 -5.328125 1.75 -5.84375 2.65625 -5.84375 C 4.078125 -5.84375 4.421875 -4.875 4.515625 -4.28125 C 4.546875 -4.140625 4.546875 -4.09375 4.75 -4.09375 C 4.984375 -4.09375 4.984375 -4.140625 4.984375 -4.359375 L 4.984375 -5.984375 C 4.984375 -6.15625 4.984375 -6.25 4.8125 -6.25 C 4.734375 -6.25 4.71875 -6.234375 4.609375 -6.140625 L 4.21875 -5.75 C 3.71875 -6.15625 3.140625 -6.25 2.65625 -6.25 C 1.21875 -6.25 0.59375 -5.34375 0.59375 -4.453125 C 0.59375 -3.8125 0.953125 -3.390625 1.03125 -3.296875 C 1.53125 -2.8125 1.828125 -2.75 2.75 -2.546875 C 2.90625 -2.53125 3.046875 -2.5 3.171875 -2.46875 C 3.703125 -2.359375 3.859375 -2.328125 4.15625 -2.015625 C 4.15625 -2 4.390625 -1.765625 4.390625 -1.375 C 4.390625 -1.1875 4.34375 -0.328125 3.1875 -0.328125 C 2.65625 -0.328125 1.125 -0.4375 1.046875 -1.828125 C 1.03125 -1.984375 1.03125 -2.046875 0.828125 -2.046875 C 0.59375 -2.046875 0.59375 -1.984375 0.59375 -1.765625 L 0.59375 -0.15625 C 0.59375 0.015625 0.59375 0.109375 0.765625 0.109375 C 0.84375 0.109375 0.859375 0.109375 0.9375 0.03125 C 1 -0.015625 1.1875 -0.234375 1.359375 -0.375 C 1.90625 0.015625 2.703125 0.109375 3.203125 0.109375 C 4.703125 0.109375 5.28125 -0.890625 5.28125 -1.8125 Z M 5.28125 -1.8125 "/>
</g>
<g id="glyph-3-17">
<path d="M 2.671875 0 L 2.671875 -0.4375 L 2.0625 -0.4375 L 2.0625 -6.21875 L 0.46875 -6.140625 L 0.46875 -5.703125 C 1 -5.703125 1.078125 -5.703125 1.078125 -5.359375 L 1.078125 -0.4375 L 0.46875 -0.4375 L 0.46875 0 L 1.5625 -0.03125 Z M 2.671875 0 "/>
</g>
<g id="glyph-4-0">
<path d="M 3.28125 -2.21875 L 5.40625 -2.21875 C 5.515625 -2.21875 5.671875 -2.21875 5.671875 -2.390625 C 5.671875 -2.5625 5.515625 -2.5625 5.40625 -2.5625 L 3.28125 -2.5625 L 3.28125 -4.65625 C 3.28125 -4.78125 3.28125 -4.953125 3.109375 -4.953125 C 2.9375 -4.953125 2.9375 -4.796875 2.9375 -4.6875 L 2.9375 -2.5625 L 0.8125 -2.5625 C 0.703125 -2.5625 0.53125 -2.5625 0.53125 -2.390625 C 0.53125 -2.21875 0.703125 -2.21875 0.8125 -2.21875 L 2.9375 -2.21875 L 2.9375 -0.15625 L 0.8125 -0.15625 C 0.703125 -0.15625 0.53125 -0.15625 0.53125 0.015625 C 0.53125 0.1875 0.703125 0.1875 0.8125 0.1875 L 5.40625 0.1875 C 5.515625 0.1875 5.671875 0.1875 5.671875 0.015625 C 5.671875 -0.15625 5.515625 -0.15625 5.40625 -0.15625 L 3.28125 -0.15625 Z M 3.28125 -2.21875 "/>
</g>
<g id="glyph-5-0">
<path d="M 1.078125 -3.890625 C 1.4375 -3.796875 1.640625 -3.796875 1.75 -3.796875 C 2.671875 -3.796875 3.21875 -4.421875 3.21875 -4.53125 C 3.21875 -4.609375 3.171875 -4.625 3.140625 -4.625 C 3.125 -4.625 3.109375 -4.625 3.078125 -4.609375 C 2.90625 -4.546875 2.546875 -4.40625 2.03125 -4.40625 C 1.828125 -4.40625 1.46875 -4.421875 1.015625 -4.59375 C 0.9375 -4.625 0.921875 -4.625 0.921875 -4.625 C 0.828125 -4.625 0.828125 -4.546875 0.828125 -4.4375 L 0.828125 -2.390625 C 0.828125 -2.265625 0.828125 -2.1875 0.9375 -2.1875 C 1 -2.1875 1.015625 -2.1875 1.078125 -2.28125 C 1.375 -2.65625 1.8125 -2.71875 2.046875 -2.71875 C 2.46875 -2.71875 2.65625 -2.390625 2.6875 -2.328125 C 2.8125 -2.09375 2.859375 -1.828125 2.859375 -1.421875 C 2.859375 -1.21875 2.859375 -0.8125 2.640625 -0.5 C 2.46875 -0.25 2.171875 -0.078125 1.828125 -0.078125 C 1.375 -0.078125 0.90625 -0.328125 0.734375 -0.796875 C 1 -0.78125 1.140625 -0.953125 1.140625 -1.140625 C 1.140625 -1.4375 0.875 -1.484375 0.78125 -1.484375 C 0.78125 -1.484375 0.4375 -1.484375 0.4375 -1.109375 C 0.4375 -0.484375 1.015625 0.140625 1.84375 0.140625 C 2.734375 0.140625 3.515625 -0.515625 3.515625 -1.40625 C 3.515625 -2.1875 2.921875 -2.90625 2.0625 -2.90625 C 1.75 -2.90625 1.390625 -2.84375 1.078125 -2.578125 Z M 1.078125 -3.890625 "/>
</g>
<g id="glyph-5-1">
<path d="M 6.046875 -1.015625 C 6.046875 -1.8125 5.59375 -2.421875 5.03125 -2.421875 C 4.453125 -2.421875 3.90625 -1.828125 3.90625 -1.015625 C 3.90625 -0.171875 4.46875 0.390625 5.03125 0.390625 C 5.59375 0.390625 6.046875 -0.234375 6.046875 -1.015625 Z M 5.046875 0.1875 C 4.921875 0.1875 4.40625 0.140625 4.40625 -1.015625 C 4.40625 -2.1875 4.921875 -2.21875 5.046875 -2.21875 C 5.421875 -2.21875 5.8125 -1.71875 5.8125 -1.015625 C 5.8125 -0.296875 5.421875 0.1875 5.046875 0.1875 Z M 5.328125 -4.90625 C 5.40625 -4.984375 5.40625 -5.03125 5.40625 -5.046875 C 5.40625 -5.171875 5.296875 -5.21875 5.234375 -5.21875 C 5.21875 -5.21875 5.15625 -5.21875 5.09375 -5.15625 C 4.9375 -4.96875 4.515625 -4.453125 3.625 -4.453125 C 3.125 -4.453125 2.640625 -4.609375 2.140625 -5.015625 C 1.96875 -5.15625 1.8125 -5.21875 1.609375 -5.21875 C 1.03125 -5.21875 0.484375 -4.640625 0.484375 -3.828125 C 0.484375 -2.984375 1.046875 -2.421875 1.609375 -2.421875 C 2.171875 -2.421875 2.625 -3.03125 2.625 -3.8125 C 2.625 -3.953125 2.609375 -4.25 2.484375 -4.546875 C 2.90625 -4.328125 3.296875 -4.265625 3.640625 -4.265625 C 3.96875 -4.265625 4.28125 -4.328125 4.5625 -4.46875 L 4.578125 -4.453125 L 1.203125 0.0625 C 1.15625 0.140625 1.125 0.15625 1.125 0.21875 C 1.125 0.328125 1.203125 0.390625 1.296875 0.390625 C 1.390625 0.390625 1.421875 0.328125 1.46875 0.28125 Z M 1.625 -2.609375 C 1.5 -2.609375 0.984375 -2.65625 0.984375 -3.8125 C 0.984375 -4.984375 1.5 -5.03125 1.625 -5.03125 C 2 -5.03125 2.390625 -4.53125 2.390625 -3.828125 C 2.390625 -3.09375 2 -2.609375 1.625 -2.609375 Z M 1.625 -2.609375 "/>
</g>
</g>
</defs>
<path fill="none" stroke-width="0.3985" stroke-linecap="butt" stroke-linejoin="miter" stroke="rgb(78.431702%, 78.431702%, 78.431702%)" stroke-opacity="1" stroke-miterlimit="10" d="M -0.00161077 -0.000845391 L -0.00161077 170.079345 " transform="matrix(0.998679, 0, 0, -0.998679, 51.622702, 211.038218)"/>
<path fill="none" stroke-width="0.3985" stroke-linecap="butt" stroke-linejoin="miter" stroke="rgb(78.431702%, 78.431702%, 78.431702%)" stroke-opacity="1" stroke-miterlimit="10" d="M 28.348347 -0.000845391 L 28.348347 170.079345 " transform="matrix(0.998679, 0, 0, -0.998679, 51.622702, 211.038218)"/>
<path fill="none" stroke-width="0.3985" stroke-linecap="butt" stroke-linejoin="miter" stroke="rgb(78.431702%, 78.431702%, 78.431702%)" stroke-opacity="1" stroke-miterlimit="10" d="M 56.694394 -0.000845391 L 56.694394 170.079345 " transform="matrix(0.998679, 0, 0, -0.998679, 51.622702, 211.038218)"/>
<path fill="none" stroke-width="0.3985" stroke-linecap="butt" stroke-linejoin="miter" stroke="rgb(78.431702%, 78.431702%, 78.431702%)" stroke-opacity="1" stroke-miterlimit="10" d="M 85.04044 -0.000845391 L 85.04044 170.079345 " transform="matrix(0.998679, 0, 0, -0.998679, 51.622702, 211.038218)"/>
<path fill="none" stroke-width="0.3985" stroke-linecap="butt" stroke-linejoin="miter" stroke="rgb(78.431702%, 78.431702%, 78.431702%)" stroke-opacity="1" stroke-miterlimit="10" d="M 113.386486 -0.000845391 L 113.386486 170.079345 " transform="matrix(0.998679, 0, 0, -0.998679, 51.622702, 211.038218)"/>
<path fill="none" stroke-width="0.3985" stroke-linecap="butt" stroke-linejoin="miter" stroke="rgb(78.431702%, 78.431702%, 78.431702%)" stroke-opacity="1" stroke-miterlimit="10" d="M 141.732533 -0.000845391 L 141.732533 170.079345 " transform="matrix(0.998679, 0, 0, -0.998679, 51.622702, 211.038218)"/>
<path fill="none" stroke-width="0.3985" stroke-linecap="butt" stroke-linejoin="miter" stroke="rgb(78.431702%, 78.431702%, 78.431702%)" stroke-opacity="1" stroke-miterlimit="10" d="M 170.082491 -0.000845391 L 170.082491 170.079345 " transform="matrix(0.998679, 0, 0, -0.998679, 51.622702, 211.038218)"/>
<path fill="none" stroke-width="0.3985" stroke-linecap="butt" stroke-linejoin="miter" stroke="rgb(78.431702%, 78.431702%, 78.431702%)" stroke-opacity="1" stroke-miterlimit="10" d="M 198.428537 -0.000845391 L 198.428537 170.079345 " transform="matrix(0.998679, 0, 0, -0.998679, 51.622702, 211.038218)"/>
<path fill="none" stroke-width="0.3985" stroke-linecap="butt" stroke-linejoin="miter" stroke="rgb(78.431702%, 78.431702%, 78.431702%)" stroke-opacity="1" stroke-miterlimit="10" d="M 226.774584 -0.000845391 L 226.774584 170.079345 " transform="matrix(0.998679, 0, 0, -0.998679, 51.622702, 211.038218)"/>
<path fill="none" stroke-width="0.3985" stroke-linecap="butt" stroke-linejoin="miter" stroke="rgb(78.431702%, 78.431702%, 78.431702%)" stroke-opacity="1" stroke-miterlimit="10" d="M 255.12063 -0.000845391 L 255.12063 170.079345 " transform="matrix(0.998679, 0, 0, -0.998679, 51.622702, 211.038218)"/>
<path fill="none" stroke-width="0.3985" stroke-linecap="butt" stroke-linejoin="miter" stroke="rgb(78.431702%, 78.431702%, 78.431702%)" stroke-opacity="1" stroke-miterlimit="10" d="M 283.466677 -0.000845391 L 283.466677 170.079345 " transform="matrix(0.998679, 0, 0, -0.998679, 51.622702, 211.038218)"/>
<path fill="none" stroke-width="0.3985" stroke-linecap="butt" stroke-linejoin="miter" stroke="rgb(78.431702%, 78.431702%, 78.431702%)" stroke-opacity="1" stroke-miterlimit="10" d="M 311.816634 -0.000845391 L 311.816634 170.079345 " transform="matrix(0.998679, 0, 0, -0.998679, 51.622702, 211.038218)"/>
<path fill="none" stroke-width="0.3985" stroke-linecap="butt" stroke-linejoin="miter" stroke="rgb(78.431702%, 78.431702%, 78.431702%)" stroke-opacity="1" stroke-miterlimit="10" d="M 340.162681 -0.000845391 L 340.162681 170.079345 " transform="matrix(0.998679, 0, 0, -0.998679, 51.622702, 211.038218)"/>
<path fill="none" stroke-width="0.3985" stroke-linecap="butt" stroke-linejoin="miter" stroke="rgb(78.431702%, 78.431702%, 78.431702%)" stroke-opacity="1" stroke-miterlimit="10" d="M -0.00161077 -0.000845391 L 340.162681 -0.000845391 " transform="matrix(0.998679, 0, 0, -0.998679, 51.622702, 211.038218)"/>
<path fill="none" stroke-width="0.3985" stroke-linecap="butt" stroke-linejoin="miter" stroke="rgb(78.431702%, 78.431702%, 78.431702%)" stroke-opacity="1" stroke-miterlimit="10" d="M -0.00161077 28.345201 L 340.162681 28.345201 " transform="matrix(0.998679, 0, 0, -0.998679, 51.622702, 211.038218)"/>
<path fill="none" stroke-width="0.3985" stroke-linecap="butt" stroke-linejoin="miter" stroke="rgb(78.431702%, 78.431702%, 78.431702%)" stroke-opacity="1" stroke-miterlimit="10" d="M -0.00161077 56.695159 L 340.162681 56.695159 " transform="matrix(0.998679, 0, 0, -0.998679, 51.622702, 211.038218)"/>
<path fill="none" stroke-width="0.3985" stroke-linecap="butt" stroke-linejoin="miter" stroke="rgb(78.431702%, 78.431702%, 78.431702%)" stroke-opacity="1" stroke-miterlimit="10" d="M -0.00161077 85.041205 L 340.162681 85.041205 " transform="matrix(0.998679, 0, 0, -0.998679, 51.622702, 211.038218)"/>
<path fill="none" stroke-width="0.3985" stroke-linecap="butt" stroke-linejoin="miter" stroke="rgb(78.431702%, 78.431702%, 78.431702%)" stroke-opacity="1" stroke-miterlimit="10" d="M -0.00161077 113.387252 L 340.162681 113.387252 " transform="matrix(0.998679, 0, 0, -0.998679, 51.622702, 211.038218)"/>
<path fill="none" stroke-width="0.3985" stroke-linecap="butt" stroke-linejoin="miter" stroke="rgb(78.431702%, 78.431702%, 78.431702%)" stroke-opacity="1" stroke-miterlimit="10" d="M -0.00161077 141.733298 L 340.162681 141.733298 " transform="matrix(0.998679, 0, 0, -0.998679, 51.622702, 211.038218)"/>
<path fill="none" stroke-width="0.3985" stroke-linecap="butt" stroke-linejoin="miter" stroke="rgb(78.431702%, 78.431702%, 78.431702%)" stroke-opacity="1" stroke-miterlimit="10" d="M -0.00161077 170.079345 L 340.162681 170.079345 " transform="matrix(0.998679, 0, 0, -0.998679, 51.622702, 211.038218)"/>
<path fill="none" stroke-width="0.99628" stroke-linecap="butt" stroke-linejoin="miter" stroke="rgb(31.373596%, 31.373596%, 31.373596%)" stroke-opacity="1" stroke-miterlimit="10" d="M -8.505034 -0.000845391 L 349.006397 -0.000845391 " transform="matrix(0.998679, 0, 0, -0.998679, 51.622702, 211.038218)"/>
<path fill-rule="nonzero" fill="rgb(31.373596%, 31.373596%, 31.373596%)" fill-opacity="1" stroke-width="0.99628" stroke-linecap="butt" stroke-linejoin="miter" stroke="rgb(31.373596%, 31.373596%, 31.373596%)" stroke-opacity="1" stroke-miterlimit="10" d="M 7.086745 -0.000845391 L 1.606848 2.068295 L 3.421746 -0.000845391 L 1.606848 -2.069986 Z M 7.086745 -0.000845391 " transform="matrix(0.998679, 0, 0, -0.998679, 396.996837, 211.038218)"/>
<g fill="rgb(31.373596%, 31.373596%, 31.373596%)" fill-opacity="1">
<use xlink:href="#glyph-0-0" x="409.298492" y="213.525927"/>
</g>
<g fill="rgb(31.373596%, 31.373596%, 31.373596%)" fill-opacity="1">
<use xlink:href="#glyph-1-0" x="416.701697" y="213.525927"/>
<use xlink:href="#glyph-1-1" x="419.87558" y="213.525927"/>
<use xlink:href="#glyph-1-2" x="424.392643" y="213.525927"/>
</g>
<path fill="none" stroke-width="0.99628" stroke-linecap="butt" stroke-linejoin="miter" stroke="rgb(31.373596%, 31.373596%, 31.373596%)" stroke-opacity="1" stroke-miterlimit="10" d="M -0.00161077 -8.504268 L -0.00161077 178.923061 " transform="matrix(0.998679, 0, 0, -0.998679, 51.622702, 211.038218)"/>
<path fill-rule="nonzero" fill="rgb(31.373596%, 31.373596%, 31.373596%)" fill-opacity="1" stroke-width="0.99628" stroke-linecap="butt" stroke-linejoin="miter" stroke="rgb(31.373596%, 31.373596%, 31.373596%)" stroke-opacity="1" stroke-miterlimit="10" d="M 7.084269 0.00161077 L 1.608284 2.070751 L 3.423182 0.00161077 L 1.608284 -2.071441 Z M 7.084269 0.00161077 " transform="matrix(0, -0.998679, -0.998679, 0, 51.622702, 35.520221)"/>
<g fill="rgb(31.373596%, 31.373596%, 31.373596%)" fill-opacity="1">
<use xlink:href="#glyph-0-1" x="29.831532" y="20.729"/>
</g>
<g fill="rgb(31.373596%, 31.373596%, 31.373596%)" fill-opacity="1">
<use xlink:href="#glyph-1-0" x="40.191826" y="20.729"/>
<use xlink:href="#glyph-1-3" x="43.365709" y="20.729"/>
<use xlink:href="#glyph-1-4" x="48.081761" y="20.729"/>
<use xlink:href="#glyph-1-5" x="53.643518" y="20.729"/>
<use xlink:href="#glyph-1-6" x="60.001234" y="20.729"/>
<use xlink:href="#glyph-1-1" x="65.722183" y="20.729"/>
<use xlink:href="#glyph-1-2" x="70.239245" y="20.729"/>
</g>
<g fill="rgb(31.373596%, 31.373596%, 31.373596%)" fill-opacity="1">
<use xlink:href="#glyph-2-0" x="49.641324" y="222.008704"/>
</g>
<g fill="rgb(31.373596%, 31.373596%, 31.373596%)" fill-opacity="1">
<use xlink:href="#glyph-2-0" x="103.152528" y="222.008704"/>
<use xlink:href="#glyph-2-1" x="107.115405" y="222.008704"/>
<use xlink:href="#glyph-2-2" x="109.364983" y="222.008704"/>
</g>
<g fill="rgb(31.373596%, 31.373596%, 31.373596%)" fill-opacity="1">
<use xlink:href="#glyph-2-3" x="159.770621" y="222.008704"/>
<use xlink:href="#glyph-2-1" x="163.733499" y="222.008704"/>
<use xlink:href="#glyph-2-0" x="165.983076" y="222.008704"/>
</g>
<g fill="rgb(31.373596%, 31.373596%, 31.373596%)" fill-opacity="1">
<use xlink:href="#glyph-2-3" x="216.388714" y="222.008704"/>
<use xlink:href="#glyph-2-1" x="220.351592" y="222.008704"/>
<use xlink:href="#glyph-2-2" x="222.60117" y="222.008704"/>
</g>
<g fill="rgb(31.373596%, 31.373596%, 31.373596%)" fill-opacity="1">
<use xlink:href="#glyph-2-4" x="273.006808" y="222.008704"/>
<use xlink:href="#glyph-2-1" x="276.969686" y="222.008704"/>
<use xlink:href="#glyph-2-0" x="279.219263" y="222.008704"/>
</g>
<g fill="rgb(31.373596%, 31.373596%, 31.373596%)" fill-opacity="1">
<use xlink:href="#glyph-2-4" x="329.624901" y="222.008704"/>
<use xlink:href="#glyph-2-1" x="333.587779" y="222.008704"/>
<use xlink:href="#glyph-2-2" x="335.837356" y="222.008704"/>
</g>
<g fill="rgb(31.373596%, 31.373596%, 31.373596%)" fill-opacity="1">
<use xlink:href="#glyph-2-5" x="386.242995" y="222.008704"/>
<use xlink:href="#glyph-2-1" x="390.205872" y="222.008704"/>
<use xlink:href="#glyph-2-0" x="392.45545" y="222.008704"/>
</g>
<path fill="none" stroke-width="1.99255" stroke-linecap="butt" stroke-linejoin="miter" stroke="rgb(0%, 47.059631%, 78.431702%)" stroke-opacity="1" stroke-miterlimit="10" d="M -0.00161077 -0.000845391 L 56.694394 -0.000845391 L 56.694394 113.387252 L 340.162681 113.387252 " transform="matrix(0.998679, 0, 0, -0.998679, 51.622702, 211.038218)"/>
<g fill="rgb(0%, 47.059631%, 78.431702%)" fill-opacity="1">
<use xlink:href="#glyph-3-0" x="46.131967" y="197.230486"/>
</g>
<g fill="rgb(0%, 47.059631%, 78.431702%)" fill-opacity="1">
<use xlink:href="#glyph-3-1" x="52.615049" y="197.230486"/>
<use xlink:href="#glyph-3-2" x="57.763905" y="197.230486"/>
<use xlink:href="#glyph-3-3" x="62.133717" y="197.230486"/>
<use xlink:href="#glyph-3-4" x="67.434801" y="197.230486"/>
<use xlink:href="#glyph-3-5" x="72.297112" y="197.230486"/>
</g>
<path fill="none" stroke-width="1.99255" stroke-linecap="butt" stroke-linejoin="miter" stroke="rgb(86.274719%, 19.607544%, 11.764526%)" stroke-opacity="1" stroke-miterlimit="10" d="M -0.00161077 -0.000845391 L 56.694394 -0.000845391 " transform="matrix(0.998679, 0, 0, -0.998679, 51.622702, 211.038218)"/>
<path fill="none" stroke-width="1.99255" stroke-linecap="butt" stroke-linejoin="miter" stroke="rgb(86.274719%, 19.607544%, 11.764526%)" stroke-opacity="1" stroke-miterlimit="10" d="M 56.694394 0.0148003 L 58.11815 0.359005 L 59.541906 1.450291 L 60.965662 3.218252 L 62.389418 5.608128 L 63.813174 8.596451 L 65.236931 12.116728 L 66.660687 16.114197 L 68.084443 20.565391 L 69.508199 25.411638 L 70.931955 30.586444 L 72.355711 36.06634 L 73.779467 41.780922 L 75.203224 47.683252 L 76.62698 53.726393 L 78.050736 59.87123 L 79.474492 66.074739 L 80.898248 72.286071 L 82.325916 78.473934 L 83.749672 84.587481 L 85.173428 90.591508 L 86.597184 96.466457 L 88.020941 102.165393 L 89.444697 107.664847 L 90.868453 112.937439 L 92.292209 117.959699 L 93.715965 122.715984 L 95.139721 127.178912 L 96.563477 131.344572 L 97.987234 135.189496 L 99.41099 138.717595 L 100.834746 141.905401 L 102.258502 144.756824 L 103.682258 147.271866 L 105.106014 149.438792 L 106.529771 151.273247 L 107.953527 152.775231 L 109.377283 153.944745 L 110.801039 154.797434 L 112.224795 155.341122 L 113.648551 155.587541 L 115.072308 155.544515 L 116.499975 155.22769 L 117.923731 154.656623 L 119.347488 153.843048 L 120.771244 152.810434 L 122.195 151.562692 L 123.618756 150.135024 L 125.042512 148.539166 L 126.466268 146.782939 L 127.890024 144.893724 L 129.313781 142.894989 L 130.737537 140.790647 L 132.161293 138.623721 L 133.585049 136.38639 L 135.008805 134.106033 L 136.432561 131.802208 L 137.856318 129.49056 L 139.280074 127.182823 L 140.70383 124.898555 L 142.127586 122.645578 L 143.551342 120.439539 L 144.975098 118.296081 L 146.398855 116.22303 L 147.822611 114.228207 L 149.246367 112.327258 L 150.670123 110.520182 L 152.097791 108.822627 L 153.521547 107.23068 L 154.945303 105.759987 L 156.369059 104.402725 L 157.792815 103.174539 L 159.216571 102.063697 L 160.640328 101.089754 L 162.064084 100.233153 L 163.48784 99.509541 L 164.911596 98.903271 L 166.335352 98.429989 L 167.759108 98.077962 L 169.182865 97.835454 L 170.606621 97.698554 L 172.030377 97.68682 L 173.454133 97.765048 L 174.877889 97.937151 L 176.301645 98.214861 L 177.725402 98.5708 L 179.149158 99.008879 L 180.572914 99.525186 L 181.99667 100.088431 L 183.420426 100.72208 L 184.844182 101.414401 L 186.267939 102.138014 L 187.695606 102.916386 L 189.119362 103.710404 L 190.543118 104.539624 L 191.966875 105.380579 L 193.390631 106.23718 L 194.814387 107.097692 L 197.661899 108.810893 L 199.085655 109.651848 L 200.509412 110.477157 L 201.933168 111.28682 L 203.356924 112.065193 L 204.78068 112.820096 L 206.204436 113.535886 L 207.628192 114.224295 L 209.051949 114.869679 L 210.475705 115.475949 L 211.899461 116.043105 L 213.323217 116.559412 L 214.746973 117.028782 L 216.170729 117.462949 L 217.594486 117.842357 L 219.018242 118.174827 L 220.441998 118.460361 L 221.869665 118.698957 L 223.293422 118.890617 L 224.717178 119.047074 L 226.140934 119.148771 L 227.56469 119.211353 L 228.988446 119.23091 L 230.412202 119.219176 L 231.835959 119.152682 L 233.259715 119.074454 L 234.683471 118.945377 L 236.107227 118.800654 L 237.530983 118.620729 L 238.954739 118.413424 L 240.378496 118.178739 L 241.802252 117.93232 L 243.226008 117.666343 L 244.649764 117.38081 L 246.07352 117.091365 L 248.921032 116.473361 L 251.768545 115.839711 L 254.616057 115.198238 L 256.039813 114.885325 L 257.467481 114.572411 L 258.891237 114.271232 L 260.314993 113.977876 L 261.738749 113.696254 L 263.162506 113.422455 L 264.586262 113.164301 L 266.010018 112.917882 L 267.433774 112.687108 L 268.85753 112.47198 L 270.281286 112.276409 L 271.705043 112.092572 L 273.128799 111.928293 L 274.552555 111.78357 L 275.976311 111.646671 L 277.400067 111.541062 L 278.823823 111.439366 L 280.247579 111.36896 L 281.671336 111.306377 L 283.095092 111.25944 L 284.518848 111.235972 L 285.942604 111.224238 L 287.36636 111.216415 L 288.790116 111.235972 L 290.213873 111.263352 L 291.64154 111.310289 L 293.065296 111.361137 L 294.489053 111.42372 L 295.912809 111.494125 L 297.336565 111.576265 L 298.760321 111.670139 L 300.184077 111.767925 L 301.607833 111.861799 L 303.031589 111.97523 L 304.455346 112.080838 L 305.879102 112.202092 L 307.302858 112.315523 L 308.726614 112.432866 L 310.15037 112.558031 L 312.997883 112.792716 L 314.421639 112.906147 L 315.845395 113.02349 L 317.269151 113.13301 L 318.692907 113.238618 L 320.116663 113.340315 L 321.54042 113.4381 L 324.387932 113.618025 L 325.811688 113.700165 L 327.239356 113.778394 L 330.086868 113.911382 L 331.510624 113.966142 L 332.93438 114.01699 L 334.358136 114.063927 L 335.781893 114.09913 L 337.205649 114.130421 L 340.053161 114.177358 " transform="matrix(0.998679, 0, 0, -0.998679, 51.622702, 211.038218)"/>
<g fill="rgb(86.274719%, 19.607544%, 11.764526%)" fill-opacity="1">
<use xlink:href="#glyph-3-6" x="309.918973" y="89.718726"/>
<use xlink:href="#glyph-3-4" x="317.861643" y="89.718726"/>
<use xlink:href="#glyph-3-7" x="322.723955" y="89.718726"/>
<use xlink:href="#glyph-3-8" x="326.905722" y="89.718726"/>
</g>
<g fill="rgb(86.274719%, 19.607544%, 11.764526%)" fill-opacity="1">
<use xlink:href="#glyph-3-9" x="333.075395" y="89.718726"/>
<use xlink:href="#glyph-3-10" x="338.376478" y="89.718726"/>
<use xlink:href="#glyph-3-7" x="344.259607" y="89.718726"/>
<use xlink:href="#glyph-3-4" x="348.441374" y="89.718726"/>
</g>
<path fill="none" stroke-width="0.99628" stroke-linecap="butt" stroke-linejoin="miter" stroke="rgb(15.684509%, 62.745667%, 15.684509%)" stroke-opacity="1" stroke-dasharray="2.98883 2.98883" stroke-miterlimit="10" d="M 113.386486 113.387252 L 113.386486 155.908277 " transform="matrix(0.998679, 0, 0, -0.998679, 51.622702, 211.038218)"/>
<path fill="none" stroke-width="0.99628" stroke-linecap="butt" stroke-linejoin="miter" stroke="rgb(15.684509%, 62.745667%, 15.684509%)" stroke-opacity="1" stroke-dasharray="2.98883 2.98883" stroke-miterlimit="10" d="M 113.386486 155.908277 L 161.575157 155.908277 " transform="matrix(0.998679, 0, 0, -0.998679, 51.622702, 211.038218)"/>
<path fill="none" stroke-width="0.99628" stroke-linecap="butt" stroke-linejoin="miter" stroke="rgb(15.684509%, 62.745667%, 15.684509%)" stroke-opacity="1" stroke-dasharray="2.98883 2.98883" stroke-miterlimit="10" d="M 147.404089 113.387252 L 161.575157 113.387252 " transform="matrix(0.998679, 0, 0, -0.998679, 51.622702, 211.038218)"/>
<path fill="none" stroke-width="0.79701" stroke-linecap="butt" stroke-linejoin="miter" stroke="rgb(15.684509%, 62.745667%, 15.684509%)" stroke-opacity="1" stroke-miterlimit="10" d="M 155.907512 116.88406 L 155.907512 152.407558 " transform="matrix(0.998679, 0, 0, -0.998679, 51.622702, 211.038218)"/>
<path fill-rule="nonzero" fill="rgb(15.684509%, 62.745667%, 15.684509%)" fill-opacity="1" stroke-width="0.79701" stroke-linecap="butt" stroke-linejoin="miter" stroke="rgb(15.684509%, 62.745667%, 15.684509%)" stroke-opacity="1" stroke-miterlimit="10" d="M 4.535017 0.0000718063 L 1.28854 1.232168 L 2.368091 0.0000718063 L 1.28854 -1.232025 Z M 4.535017 0.0000718063 " transform="matrix(0, 0.998679, 0.998679, 0, 207.324147, 92.138944)"/>
<path fill-rule="nonzero" fill="rgb(15.684509%, 62.745667%, 15.684509%)" fill-opacity="1" stroke-width="0.79701" stroke-linecap="butt" stroke-linejoin="miter" stroke="rgb(15.684509%, 62.745667%, 15.684509%)" stroke-opacity="1" stroke-miterlimit="10" d="M 4.535886 -0.0000718063 L 1.285498 1.232025 L 2.36896 -0.0000718063 L 1.285498 -1.232168 Z M 4.535886 -0.0000718063 " transform="matrix(0, -0.998679, -0.998679, 0, 207.324147, 60.998643)"/>
<g fill="rgb(15.684509%, 62.745667%, 15.684509%)" fill-opacity="1">
<use xlink:href="#glyph-3-11" x="213.668314" y="79.642057"/>
<use xlink:href="#glyph-3-12" x="221.628893" y="79.642057"/>
</g>
<g fill="rgb(15.684509%, 62.745667%, 15.684509%)" fill-opacity="1">
<use xlink:href="#glyph-3-4" x="226.929977" y="79.642057"/>
<use xlink:href="#glyph-3-2" x="231.792288" y="79.642057"/>
<use xlink:href="#glyph-3-7" x="236.162101" y="79.642057"/>
<use xlink:href="#glyph-3-13" x="240.343867" y="79.642057"/>
<use xlink:href="#glyph-3-9" x="246.226996" y="79.642057"/>
</g>
<g fill="rgb(15.684509%, 62.745667%, 15.684509%)" fill-opacity="1">
<use xlink:href="#glyph-3-9" x="251.823579" y="79.642057"/>
<use xlink:href="#glyph-3-5" x="257.124662" y="79.642057"/>
</g>
<path fill="none" stroke-width="0.99628" stroke-linecap="butt" stroke-linejoin="miter" stroke="rgb(15.684509%, 62.745667%, 15.684509%)" stroke-opacity="1" stroke-dasharray="2.98883 2.98883" stroke-miterlimit="10" d="M 56.694394 -22.679247 L 56.694394 -8.504268 " transform="matrix(0.998679, 0, 0, -0.998679, 51.622702, 211.038218)"/>
<path fill="none" stroke-width="0.99628" stroke-linecap="butt" stroke-linejoin="miter" stroke="rgb(15.684509%, 62.745667%, 15.684509%)" stroke-opacity="1" stroke-dasharray="2.98883 2.98883" stroke-miterlimit="10" d="M 90.708085 -22.679247 L 90.708085 -8.504268 " transform="matrix(0.998679, 0, 0, -0.998679, 51.622702, 211.038218)"/>
<path fill="none" stroke-width="0.79701" stroke-linecap="butt" stroke-linejoin="miter" stroke="rgb(15.684509%, 62.745667%, 15.684509%)" stroke-opacity="1" stroke-miterlimit="10" d="M 60.191201 -17.007691 L 87.211277 -17.007691 " transform="matrix(0.998679, 0, 0, -0.998679, 51.622702, 211.038218)"/>
<path fill-rule="nonzero" fill="rgb(15.684509%, 62.745667%, 15.684509%)" fill-opacity="1" stroke-width="0.79701" stroke-linecap="butt" stroke-linejoin="miter" stroke="rgb(15.684509%, 62.745667%, 15.684509%)" stroke-opacity="1" stroke-miterlimit="10" d="M 4.534255 -0.000549026 L 1.287778 1.231548 L 2.371241 -0.000549026 L 1.287778 -1.232646 Z M 4.534255 -0.000549026 " transform="matrix(-0.998679, 0, 0, 0.998679, 113.903264, 228.023986)"/>
<path fill-rule="nonzero" fill="rgb(15.684509%, 62.745667%, 15.684509%)" fill-opacity="1" stroke-width="0.79701" stroke-linecap="butt" stroke-linejoin="miter" stroke="rgb(15.684509%, 62.745667%, 15.684509%)" stroke-opacity="1" stroke-miterlimit="10" d="M 4.533433 0.000549026 L 1.286957 1.232646 L 2.370419 0.000549026 L 1.286957 -1.231548 Z M 4.533433 0.000549026 " transform="matrix(0.998679, 0, 0, -0.998679, 136.550681, 228.023986)"/>
<g fill="rgb(15.684509%, 62.745667%, 15.684509%)" fill-opacity="1">
<use xlink:href="#glyph-3-6" x="101.491725" y="244.759604"/>
<use xlink:href="#glyph-3-14" x="109.434396" y="244.759604"/>
<use xlink:href="#glyph-3-7" x="112.380437" y="244.759604"/>
<use xlink:href="#glyph-3-4" x="116.562204" y="244.759604"/>
</g>
<g fill="rgb(15.684509%, 62.745667%, 15.684509%)" fill-opacity="1">
<use xlink:href="#glyph-3-0" x="124.952601" y="244.759604"/>
<use xlink:href="#glyph-3-14" x="132.322182" y="244.759604"/>
<use xlink:href="#glyph-3-15" x="135.268223" y="244.759604"/>
<use xlink:href="#glyph-3-4" x="144.097393" y="244.759604"/>
</g>
<path fill="none" stroke-width="0.99628" stroke-linecap="butt" stroke-linejoin="miter" stroke="rgb(15.684509%, 62.745667%, 15.684509%)" stroke-opacity="1" stroke-dasharray="2.98883 2.98883" stroke-miterlimit="10" d="M 56.694394 -51.025294 L 56.694394 -42.521871 " transform="matrix(0.998679, 0, 0, -0.998679, 51.622702, 211.038218)"/>
<path fill="none" stroke-width="0.99628" stroke-linecap="butt" stroke-linejoin="miter" stroke="rgb(15.684509%, 62.745667%, 15.684509%)" stroke-opacity="1" stroke-dasharray="2.98883 2.98883" stroke-miterlimit="10" d="M 232.442228 -51.025294 L 232.442228 -42.521871 " transform="matrix(0.998679, 0, 0, -0.998679, 51.622702, 211.038218)"/>
<path fill="none" stroke-width="0.79701" stroke-linecap="butt" stroke-linejoin="miter" stroke="rgb(15.684509%, 62.745667%, 15.684509%)" stroke-opacity="1" stroke-miterlimit="10" d="M 60.191201 -46.773582 L 228.945421 -46.773582 " transform="matrix(0.998679, 0, 0, -0.998679, 51.622702, 211.038218)"/>
<path fill-rule="nonzero" fill="rgb(15.684509%, 62.745667%, 15.684509%)" fill-opacity="1" stroke-width="0.79701" stroke-linecap="butt" stroke-linejoin="miter" stroke="rgb(15.684509%, 62.745667%, 15.684509%)" stroke-opacity="1" stroke-miterlimit="10" d="M 4.534255 0.00155216 L 1.287778 1.229737 L 2.371241 0.00155216 L 1.287778 -1.230545 Z M 4.534255 0.00155216 " transform="matrix(-0.998679, 0, 0, 0.998679, 113.903264, 257.74845)"/>
<path fill-rule="nonzero" fill="rgb(15.684509%, 62.745667%, 15.684509%)" fill-opacity="1" stroke-width="0.79701" stroke-linecap="butt" stroke-linejoin="miter" stroke="rgb(15.684509%, 62.745667%, 15.684509%)" stroke-opacity="1" stroke-miterlimit="10" d="M 4.533517 -0.00155216 L 1.28704 1.230545 L 2.370503 -0.00155216 L 1.28704 -1.229737 Z M 4.533517 -0.00155216 " transform="matrix(0.998679, 0, 0, -0.998679, 278.097473, 257.74845)"/>
<g fill="rgb(15.684509%, 62.745667%, 15.684509%)" fill-opacity="1">
<use xlink:href="#glyph-3-16" x="161.369506" y="273.176009"/>
<use xlink:href="#glyph-3-4" x="167.252634" y="273.176009"/>
<use xlink:href="#glyph-3-5" x="172.114945" y="273.176009"/>
<use xlink:href="#glyph-3-5" x="176.234031" y="273.176009"/>
<use xlink:href="#glyph-3-17" x="180.353116" y="273.176009"/>
<use xlink:href="#glyph-3-14" x="183.299157" y="273.176009"/>
<use xlink:href="#glyph-3-10" x="186.245198" y="273.176009"/>
<use xlink:href="#glyph-3-3" x="192.128327" y="273.176009"/>
</g>
<g fill="rgb(15.684509%, 62.745667%, 15.684509%)" fill-opacity="1">
<use xlink:href="#glyph-3-0" x="200.957496" y="273.176009"/>
<use xlink:href="#glyph-3-14" x="208.327077" y="273.176009"/>
<use xlink:href="#glyph-3-15" x="211.273118" y="273.176009"/>
<use xlink:href="#glyph-3-4" x="220.102288" y="273.176009"/>
</g>
<path fill="none" stroke-width="0.49814" stroke-linecap="butt" stroke-linejoin="miter" stroke="rgb(0%, 47.059631%, 78.431702%)" stroke-opacity="1" stroke-dasharray="2.98883 2.98883" stroke-miterlimit="10" d="M -0.00161077 113.387252 L 340.162681 113.387252 " transform="matrix(0.998679, 0, 0, -0.998679, 51.622702, 211.038218)"/>
<path fill-rule="nonzero" fill="rgb(15.684509%, 62.745667%, 15.684509%)" fill-opacity="0.08" d="M 51.621094 103.460938 L 51.621094 92.140625 L 391.335938 92.140625 L 391.335938 103.460938 Z M 51.621094 103.460938 "/>
<g fill="rgb(15.684509%, 62.745667%, 15.684509%)" fill-opacity="1">
<use xlink:href="#glyph-4-0" x="338.22752" y="122.647161"/>
</g>
<g fill="rgb(15.684509%, 62.745667%, 15.684509%)" fill-opacity="1">
<use xlink:href="#glyph-5-0" x="344.446292" y="122.647161"/>
<use xlink:href="#glyph-5-1" x="348.411956" y="122.647161"/>
</g>
<g fill="rgb(15.684509%, 62.745667%, 15.684509%)" fill-opacity="1">
<use xlink:href="#glyph-2-6" x="357.62985" y="122.647161"/>
<use xlink:href="#glyph-2-7" x="362.024535" y="122.647161"/>
<use xlink:href="#glyph-2-8" x="365.987413" y="122.647161"/>
<use xlink:href="#glyph-2-9" x="370.382098" y="122.647161"/>
</g>
</svg>
